<?xml version="1.0" encoding="UTF-8"?>
<svg id="Layer_1" data-name="Layer 1" xmlns="http://www.w3.org/2000/svg" viewBox="0 0 1024 1024">
  <path d="M505.85,674.3l-.77-1.7c-3.93,4.52-8.77,8.6-13.74,11.97-5.44,3.69-14.8,8.31-21.43,8.25-2.2-.02-4.48-1.08-6.86-.95-1.92.11-4.27,1.41-6,1.46-4.23.12-8.53-.22-12.81.07-.67.04-2.33-1.09-2.16.62.08.76,1.17,2.24,1.37,3.6,1.21,8.52-1.59,11.66-9.14,14.03-10.33,3.25-21.94,5.13-32.48,8.09-3.4.95-11.12,2.56-12.98,5.33-1.6,2.37-.7,4.65-.84,4.86-.12.18-.97.11-1.47,1.24-2.21,4.96-.7,12.86-1.92,18.12.57.53,11.35-1.28,13.62-1,3.48.43,10.84,6.6,13.6,9.16,6.42,5.94,13.91,13.66,10.28,23.16-3.48,9.1-21.5,27.57-29.08,34.75-2.39,2.26-5.27,4.44-7.86,6.49-1.72,2.45-1.04,10.92-1.07,14.31-.01,1.05.53,2.02.52,2.95-.04,3.05-1.09,6.61-1.48,9.65,9.41-1.32,18.96-1.18,28.46-1.46,9.11-.27,22.89.63,31.17-.49,1.62-.22,6.07-3.19,7.45-3.36,5.99-.74,22.08,9.77,25.91,14.47,3.07,3.78,6.57,10.9,5.96,15.84-.15,1.22-.77,1.93-.98,2.98s.18,2.25-.13,3.34c-.66,2.34-4.62,5.98-6.98,6.87-5.64,2.13-14.08-.57-19.88-1.08-27.21-2.37-58.46-1.31-85.57,1.98-12.04,1.46-23.58,5.1-35.37,7.67-7.9,1.72-25.12,6.37-32.15,3.94-6.26-2.15-23.32-12.17-25.76-18.27-.2-.5-1.35-4.63-1.34-4.89.14-2.95,2.41-3.14,4.01-4.37.78-.6,2.61-2.7,3.11-2.79.67-.13,1.99.75,2.95.86,5.04.56,14.88-4.75,20.47-5.18,5.34-7.4,12.73-13.04,18.75-19.88-1.86-7.36-7.87-12.5-11.72-18.79-1.44-2.34-2.38-5.17-3.84-7.54-1.6-2.61-5.37-6.18-6.4-8.45-.8-1.77-.42-3.19-.85-4.59-1.81-5.89-4.48-8.16-.98-14.57,3.06-5.6,11.36-10.2,16.77-13.41,12.32-7.32,25.37-13.3,38.61-18.78l1.12-1.35c.22-9.65-.67-19.41.99-28.94-2.66-.95-4.38,1.17-6.21,1.46-9.92,1.58-19.96,2.77-29.79-.1-7.89-8.69-20.55-12.02-22.25-24.99-1.1-8.39,2.55-5.48,8.52-6.07,21.91-2.16,43.25-8.39,64.47-13.7,7.2-1.8,23.88-4.27,29.65-7.42,1.07-.58.69-1.41,1.48-2.16,4.95-4.72,14.42-3.8,20.09-.87,2.48,1.28,5.29,4.93,8.38,4.28,1.4-.29,4.97-3.51,6.31-4.61,5.06-4.16,10.87-9.52,15.59-14.1,3.14-3.04,10.51-9.82,12.63-13.1.39-.61.62-.98.47-1.75-4.46-1.14-9.03-1.12-13.63-1.01-39.57.87-74.94,11.18-112.52,22.04-7.89,2.28-15.22,6.34-23.77,4.48-8.93-1.95-16.12-8.64-24.22-11.9-1.41-.57-2.44-1-3.98-.53-3.29,1.01-1.36,4.76-1.44,7.47-.29,9.86-4.7,25.6-6.82,35.75-1.54,7.38-1.98,13.19-5.49,20.24-1.28,2.56-4.22,5.4-4.04,8.07-1.79-.05-10.38.82-11.34-.07-.14-.13.07-.95-.18-1.25-1.39-1.66-4.53-3.16-6.07-4.6-1.62-1.52-8.29-10.05-8.91-11.87-1.28-3.78-4.57-14.56-4.69-18.11s2.24-6.22,3.22-9.14c4.57-13.68,9.61-38.59,17.66-49.63.64-.88,5.73-7.14,6.19-7.27.37-.1,1.26-.1,1.56.09,3.02,8.93,10.35,15.26,15.16,23.16,7.87-11.66,22.83-12.69,35.39-15.56,10.01-2.29,19.91-4.96,30.12-6.25l.58-4.66-1.89-24.87c-.69-1.47-7.21-4.06-9-5.34-7.49-5.38-15.69-20.89-14.86-30.14,1.3-14.62,14.52-3.32,22.57-2.76,2.14.15,3.03-1,4.87-1,9.31-.02,18.88,6.02,26.43,11.22,6.86,4.73,15.93,11.98,15.37,21.23-2.32,10.48-5.98,20.73-9.39,30.93l17.07-2.47c14.61-.21,29.03-1.39,43.55-1.02,3.11.08,17.71,2.37,19.02,1.75.57-.27.93-1.22,1.5-1.47,3.67-1.65,6.01-1.22,9.64-1.2,4.19.03,3.92-1.54,7.69,2.16,3.61,3.55,9.49,10.37,12.82,14.39,3.65,4.4,6.9,10.31,10.14,15.1,1.64,1.64.64-2.97,1.74-2.98.17,2.31-.24,4.86.05,7.13.24,1.92,1.45,3.83,1.48,5.98.06,4.28-1.11,7.56-1.53,11.37M508.06,848.26c.82.14.95-.67,1.34-1.13,1.71-2.04,3.78-6.13,5.24-8.62,18.12-31,37.59-71.77,47.76-106.17,4.77-16.14,11.48-34.96,14.53-52.21.65-3.65.16-6.31-.43-9.94-5.16-.4-9.21-3.25-13.03-6.51-2.47-2.11-10.81-10.98-11.52-13.71-.78-2.97.69-4.76.95-7.47,6.14-1.9,12.6-2.67,18.82-4.18,22.39-5.46,44.67-11.51,67.19-16.42,10.41-2.27,21.57-4.49,32.46-6.13,5.51-.83,11.82-.4,17-2.78,4.07-1.88,5.19-4.57,11.01-3.6,2.32.39,19.27,10.96,22.1,13.02,3.41,2.48,10.56,8.61,10.92,12.84.45,5.3-6.21,19.25-9.41,23.75-3.93,5.52-8.74,8.58-13.83,12.39-.58.43-4.58,3.9-4.72,4.18-2.38,4.86,5.23,11.62-4.98,14.81-7.68,2.4-15.92,2.56-23.68,4.02-.93.17-7.69,2.15-7.68,2.7,6.57,4.85,10.59,9.35,8.14,18.05-.3,1.06-2.08,2.86-.19,2.79,6.69-1.5,13.39-2.91,20.15-4.11,8.41-1.49,22.63-2.37,29.99-4.65,1.43-.44,2.27-1.72,3.65-2.29,8.51-3.54,11.27-1.43,18.88,1.11,1.46.49,3.35.3,4.97.97,2.09.86,8.29,5.35,9.61,7.21,2.18,3.05,4.68,13.58,2.23,16.52-5.18,6.2-16.19,6.03-23.97,6.71-18.06,1.56-41.59,1.38-58.75,6.56-1.43.43-3.79,1.92-5.07,2.84-1.88-1.39.76-2.15,1.24-3.45-1.53-.35-13.37,1.93-13.35,2.72,2.06,2.02,4.61,3.65,6.41,5.95,1.48,1.9,3.35,6.51,4.83,7.67,5.17,4.07,16.11,5.95,21.93,9.11,3.85,2.09,15.76,13.31,18.19,16.93,1.37,2.04,1.85,4.41,2.05,6.85,2.9,35.53-19.9,97.63-50.98,117.24-3.26,2.06-8.27,3.18-12.12,3.27-1.62.04-2.96-.83-4.33-1.6-4.24-2.42-7.88-7.14-11.48-9.8-1.31-.96-3-1.36-4.17-2.26-2.56-1.96-5.67-12.11-7.35-15.41-1.2-2.35-3.79-4.27-4.82-7.06-2.46-6.64-5.54-11.98-7.88-18.34-.55-1.5-.54-5-2.08-5.38-1.18-.29-5.31,3.74-6.63,4.61-4.36,2.9-13.38,6.81-18.55,7.22-4.1.33-8.38-1.24-12.57,0-.22-.86.36-.99.74-1.48,10.41-13.6,21.35-26.87,31.33-40.91,11.38-16.02,25.83-36.55,33.6-54.47,1.25-2.89.56-2.03,2.33-4.59.42-.6,3.02-8.02,3.09-8.7.26-2.51-.49-3.88-3.08-3.68-7.36.56-18.23,5.86-25.83,7.33-4.41.26-8.53,2.61-13.06,2.31-5.94-.39-11.94-7.24-16.49-10.6-1.51.35-4.25,13.2-4.97,15.33-4.65,13.86-10.71,28.15-17.57,40.82-4.44,8.19-10.23,18.9-15.6,26.46-10.68,15.05-20.77,21.52-37.93,27.38-1.32.45-2.45,1.75-4.36,1.58l-.41.58-.12,1.67c-.34-2.49-4.14.24-5.7.91-3.3,1.41-5.65,1.41-9.08,1.8.33-2.02,2.93-2.88,4.47-4.44,1.67-1.69,9.55-12.22,9.74-13.93M370.56,569.39c-5.9-3.55-13-8.42-20.33-7.42-.8.11-1.26,1.25-2.89,1.22-.83-.01-2.86-.47-3.8-.69-3.44-.79-11.42-4.7-14.09-4.67-.77,0-3.87,1.56-4.11,2.26-1.04,5.9-.86,10.23,1.4,15.76s6.16,12.98,10.88,16.82c.66.53,8.72,5.95,8.91,4.44l-1.24-13.6c-4.83-4.07-10.89-7.53-13.1-13.86,1-.89,9.6,4.55,11.26,5.31,2.06.93,9.81,4.23,11.5,3.36,1.21-.62.79-2.68,4.12-2.56,1.32.05,10.53,4.16,12.15,5.06,1.17.66,5.11,3.67,5.61,4.79,1.34,3.04-1.25,2.55-2.1,4.57-2.08,4.91-.62,12.23-2.45,17.37l.47.94c4.84,2.05,12.4-.1,15.35-4.45,1.41-2.08,3.53-10.85,3.43-13.33-.28-6.34-10.2-14.66-15.14-18.01-1.88-1.28-3.98-2.22-5.82-3.33ZM362.77,626.98l3.01-17.51c-1.77-2.38-.1-2.06.3-3.43l.66-16.75c-.65-1.45-1.62.17-3.13.19-5.39.04-11.63-3.44-16.59-4.96l2.97,44.53,12.77-2.07ZM387.1,607.27c-2.33.71-4.26,2.45-6.79,2.85-2.67.41-5.42-.24-8.08.33-1.04.73-.13,4.1-.46,5.37-.11.42-1.11.52-1.55,1.52-.32.73-2.24,8.41-1.92,8.72l13.23-2.1c1.37-1.82,6.31-15.9,5.56-16.7ZM727.78,629.22c-4.93-5.33-16.11-11.96-22.62-15.72-4.48-2.59-7.01-4.82-12.45-2.15-1.28.63-2.47,2.21-3.72,2.72-6.32,2.56-14.39,2.16-21.08,3.16-8.98,1.35-18.02,3.28-26.8,5.36l-.22,2-1.23-1.96-68.52,17.3c8.32.43,17.32.77,23.88,6.57l.9.13c30.52-10.72,61.98-20.05,94.43-22.52.37-.31-2.83-3.86-.75-2.96.72.31,1.72,2.08,2.45,2.5,1.14.65,6.52.73,7.93.46,1.6-.31,1.82-2.2,4.33-1.88,2.38.31,12.56,7.67,13.48,9.81.37.86.33,1.74.28,2.64-1.27.87-2.32.71-3.5,2.04-.62.71-4.06,7.32-3.91,7.85,7.96,6.39,17.13,7.76,20-4.11,1.15-4.77.35-7.71-2.91-11.22ZM469.72,630.04c2.04-.11,3.11,2.46,4.49,3.18,3.76,1.97,4.02.37,7.89,4.48,1.98,2.1,11.28,15.24,11.75,17.44.98,4.65-1.64,3.58-4.09,5.08-3.57,2.18-7.11,6.27-10.9,8.41-.79,1.23,2.21,4.27,3.23,5.21,3.92,3.62,7.12,5.33,12.62,4.7,4.82-.55,7.14-4.41,10.38-7.43.41-4.14,1.47-9.93.64-13.99-1.78-8.65-14.47-21.97-20.43-28.56-1.47-1.63-5.16-7.25-7.02-7.82s-3.23.34-4.79.34c-1.39,0-2.62-.73-4.48-.42-2.28.38-3.86,2.05-5.23,2.69-1.57.73-17.25-1.13-20.51-1.25-23.92-.85-48.39.92-71.75,5.22-4.74-1.56-5.73,5.51-7.95,8.63-.56.79-4.69,4.01-4.17,4.48,3.25-.73,6.54-1.22,9.83-1.79,19.56-3.42,39.52-7.41,59.66-8.12,14.01-.49,27.95.37,41.82,2l-.98-2.47ZM693.63,662.51c3.7-5.37,8.71-16.2,11.5-22.4,1.19-2.63,1.95-5.42,3.54-7.88.3-1.65-4.89-10.11-6.43-8.62-.09.09.16.98-.1,1.35-.74,1.07-7.49.36-9.08,1.59l-2.11,8.28-13.94,27.62c4.92-.36,9.44,1.46,14.14,2.7l.71-.19c.27-1.09,1.37-1.84,1.79-2.44ZM689.74,634.86c.51-2.77,2.62-5.43,1.88-8.32-.42-.62-5.36-.04-6.4.09-20.14,2.37-49.75,11.62-69.45,18.12-5.66,1.87-11.27,4.12-16.88,6.13.76,4.39,1.59,6.91-.45,11.17-.48,1.01-1.66,1.44-1.58,2.62,12.75-4.34,25.63-8.41,38.35-12.85,15.64-5.47,30.78-11.6,47.23-15.6,2.48-.6,4.96-.54,7.31-1.35ZM315.87,637.95c4.63,1.14,8.36,3.05,12.1,5.96.94.73,2.53,2.9,3.25,3.22,1.44.64,10.48-2.87,12.84-3.48,3.24-.83,10.08-1.3,12.56-2.78,1.96-1.17,6.16-9.64,5.7-11.53-.24-.98-1.87-.83-2.65-.79-4.99.27-13.1,2.43-18.38,3.41-7.84,1.46-15.94,2.74-23.64,5.05-.56.17-1.84.18-1.77.94ZM267.38,629.54c-.75-.2-.82.2-1.24.49-11.08,7.63-17.62,41.05-22.1,54.04-1.19,3.44-3.05,4.49-3.38,8.54s.54,4.75,1.39,8.05c2.78,10.75,4.33,15.65,12.74,23.38,1.71,1.57,5.66,4.75,7.89,4.98,1.23.13,5.61-.55,6.55-1.14.58-.36,3.35-5.27,3.86-6.28,5.47-11.02,8.88-33.21,10.97-45.93.37-2.26.94-5.09,1.13-7.28s-.54-8.71.5-9.89c1.1-1.25,3.9-1.41,5.46-1,5.26,1.38,13.71,7.92,19.43,10.25,6.76,2.74,12.43,3.49,18.81-.66,5.35-3.49,6.67-8.31,4.46-14.31-4.3.93-8.43,2.61-12.72,3.58-3.78.85-8.52,1.8-12.3,1.31-6.72-.87-12.69-6.48-20.17-3.87.08-.74,1.84-1.1,2.45-1.25,7.75-1.96,12.2.8,18.43.64,2.11-.05,9.33-1.93,11.77-2.59,2.88-.77,5.84-2.29,8.89-2.74-3.32-5.15-12.42-9.44-18.55-9.43-2.87,0-13.45,3.18-16.42,4.4-12.33,5.04-13.35,15.41-20.22,24.8-2.06,2.82-4.01,5.21-7.69,5.78-1.97,7.15-4.32,14.19-6.24,21.36-.76,2.84-1.04,6.08-1.73,8.66-.53,1.98-3.21,3.11-.63,5.29,7.16-14.44,13.42-29.36,20.4-43.91.49-1.01.67-1.21.59.09-3.04,8.94-6.86,17.54-9.52,26.61-1.81,6.15-2.82,12.58-4.54,18.71-.89,3.16-2.48,6.16-3.27,9.36-1,.7-6.55-3.51-7.01-4.53s-.22-2.28-.61-3.35c-.77-2.15-1.89-4.18-2.49-6.41-.41-1.53-3.09-12.79-2.69-13.34,1.43-1.97,4.03,1.6,4.67,1.45.54-.37.75-.92,1-1.49,1.74-3.9,3.07-10.78,4.56-15.23,2.06-6.17,7.18-16.94,6.52-23.06-.3-2.82-1.88-5.66-.93-8.71.88.23.41,2,.71,2.99.46,1.49,2.61,3.6,3.33,5.58,2.38,6.5-.51,12.39-1.57,18.65,2.82-.05,5.16-3.36,6.63-5.49,1.02-1.48,7.53-13.21,7.53-14.06-3.75-8.22-12.44-14.03-14.66-23.01ZM330.7,668.13c6.29-1.54,12.51-3.9,18.79-5.69,27.13-7.74,54.61-15.45,82.87-17.56,7.76-.58,17.18-2,24.74-2.02,3.22,0,7.18,1.15,10.32,1.93.91-.17,5.42-6.54,5.66-7.69.26-1.3.37-2.32-1.14-2.6-4.1-.76-8.79-.25-12.91-1.44-27.66-.51-56.88,3.06-83.91,9.49-1.88.45-3.36,1.79-3.57,1.78-5.38-.37-14,1.91-19.58,3.28-5.68,1.39-11.15,3.31-16.82,4.71,2.66,6.29.09,11.43-4.45,15.82ZM478.5,636.09l-3.62-.68c-2.2,6.54-7.87,12.09-12.57,17.15-4.44,4.77-9.4,9.09-13.86,13.85l-15.83,13.35c1.54,1.13,4.61,5.61,6.47,5.45,5.55-.48,14.43-6.37,19.11-9.55,2.24-1.53,14.57-10.5,15.24-12.01.74-1.68-1.45-3.6-1.25-5.42,1.41-.27.8.37,1.12,1.08.41.91.86,1.85.86,2.88.38,0,.78.06,1.16-.07.64-.23,9.17-8.69,9.75-9.56.31-.45.63-.76.38-1.37l-6.96-15.11ZM611.47,661.23c-3.86-1.82-8.19,2.75-12.24,4.08-2.23.73-4.97.79-6.81,2.11-.38,1.34,5.01,5.81,6.14,7.2,2.34,2.87,4.43,6.52,5.98,9.86l.96.48c7.92-2.55,15.71-5.52,23.65-8.04,2.94-.93,8.59-1.92,10.93-2.93.79-.34.72-1.2.88-1.33.1-.08,1.42.52,2.53.34,6-.99,13.56-4.02,19.66-5.62,5.38-1.41,9.7-.18,12.96-5.35,3.46-5.48,8.06-15.2,10.89-21.27.3-.64,1.73-3.95,1.39-4.29-6.74,1.43-14.14,2.83-20.78,4.69-7.3,2.04-19.82,6.21-26.36,9.66-1.76.93-1.9-1.31-2.84.68M574.8,654.25c1.56-.07,7.39-2.37,9.32-3.05,3.28-1.16,6.65-2.48,9.75-4.09-.01-1.98-10.86-5.1-12.83-5.47-3.66-.69-11.94-1.43-15.54-1.18-1.04.07-10.63,2.47-10.97,2.93l-2.08,5.13c5.3,8.76,13.62,19.32,24.59,20.1.21-4.91,4.46-6.98,8.91-5.19,1.33.53,3.17,2.3,4.33,2.61,4.74,1.25,8.89-6.19,8.48-10.47-.6-6.24-2.35-3.35-5.44-2.09-5.55,2.26-11.58,3.54-17.01,6.18-2.31-.79-4.79-1.35-7.03-2.33-1.35-.59-9.46-4.75-8.06-6.53.17-.21,3.74,1.59,4.42,1.76M725.97,649.83c-6.35,1.92-11.14-1.22-16.33-4.24l-14.13,21.56c2,1.44,4.14,2.81,5.97,4.45.98.88,1.4,3.17,3.2,2.23,8.33-6.4,18.55-13.23,21.29-24ZM591.58,668.95c-.41-.39-.57-1.03-1.19-1.52-6.19-4.96-12.9-5.26-12.88,4.41.01,4.03,4.73,12.28,7.25,15.55.64.83,3.63,5.21,4.69,3.71.33-1.46,1.62-4.28,1.24-5.67-.11-.4-4.18-6.63-4.5-6.9-.75-.63-1.68-.41-2.21-.76-1.41-.94.23-3.17,2.11-2.64.31.09,4.61,3.47,5.05,3.89,1.14,1.08,4.06,4.76,4.2,6.23.23,2.34-2.82,5.61-2.42,8.28,2.19,2.5,6.87,1.48,8.86-.9.68-.81,3-4.98,2.88-5.83-.19-1.29-5.5-9.71-6.64-11.21-1.72-2.26-4.41-4.73-6.46-6.65ZM684.53,671.22c.81-.83,2.84-.31,3.84-.86.59-.33,1.82-2.79,2.46-3.46-.08-1.15-9.85-3.38-11.63-3.25-2.49.18-2.02,1.19-3.55,1.9-5.48,2.53-13.48,2.75-19.43,4.81-.74.26-1.76.29-1.98,1.23,2.41.42,4.86.67,7.19,1.47s4.54,3,6.4,3.03c2.06.04,5.27-1.14,7.49-1.47,1.91-.29,6.37-.15,7.79-.62,1.1-.36.82-2.18,1.41-2.79ZM674.18,682.83c.67.76,5.29,3.96,6.44,4.68,6.79,4.24,12.75,4.23,20.24,1.27,4.18-1.64,3.16-7.16,2.31-10.96-1.05-4.71-4.55-7.48-8.69-9.58-9.43,4.74,5.41,4.39,5.79,7.56.45,3.78-4.17,1.97-6.21.88l-3.51,3.7c-3.14-.48-6.69-.57-9.86-.4-1.3.07-6.94.53-7.14,1.29-.09.35.36,1.23.64,1.55ZM494.94,680.02c-5.86.8-11.66-2.91-15.34-7.18-.75-.88-1.33-3.27-2.63-3.15-.75.07-10.69,7.19-12.55,8.24-5.36,3.03-12.31,6.09-18.32,7.41-2.05.45-4.82-.29-6.55,1.35l2.27,5.23c5.36-.27,10.95.55,16.27-.03,4.95-.54,3.76-1.07,9.45-.55,8.92.82,17.29-3.75,24.39-8.65,1.02-.7,2.37-1.62,3.01-2.67ZM664.63,677.04c1.63-1.69-4.57-3.41-5.52-3.63-3.18-.73-7.77-1.15-11-.77-2.08.25-7.08,1.29-6.74,3.9l-.5-1.48c-11.95,2.3-23.34,7.21-34.87,10.88-.44,4.57-3.59,7.98-3.21,12.87.7.11,1.31-.06,1.98-.24,7.22-1.94,15.88-6.81,23.11-9.54,10.41-3.92,21.15-7.27,31.69-10.86,1.57-.53,3.39-1.06,5.05-1.14ZM385.37,729.49c1.43-1.99,1.77-5.01,3.75-6.64,1.84-1.51,9.83-3.43,12.61-4.21,6.59-1.85,13.38-3.26,20-4.99l-8.37-4.24c-1.87-1.72-4.72-3.26-4.99-6.14,3.46,2.94,5.45,5.98,9.9,7.66,6.28,2.37,10.09,1.42,16.31-.49,6.96-2.13,8.14-4.48,7.94-11.9l-3.37-10.48c-1-2.15-3.35-.7-5.06-.63-.13-1.03,3.41-1.02,2.72-1.97-3.42-4.78-6.67-4.78-10.98-7.33-1.33-.78-2.21-2.03-3.67-2.77-2.47-1.24-9.37-2.49-12.06-2.31-3.71.25-7.13,5.13-10.03,6.34-7.44,3.1-19.21,4.76-27.36,6.79-.82.2-.95.47-2.56.86-15.06,3.69-30.18,7.29-45.39,10.29l12.21,3.86c3.74,1.57,6.11,4.69,9.21,6.92l21.59-6.12c4.49-7.05,13.68-9.44,19.78-14.36,1.02-.82,1.48-1.71,2.27-2.68.97-.23.92.51.66,1.16-1.41,3.47-12.35,7.94-15.87,10.74-.72.57-3.62,3.09-2.85,3.94l39.49-10.47c.86-1.95.8-5.82,3.42-6.27,3.61-.63,19.26,6.12,17.68,10.33-2.04,3.05-6.2,1.96-9.34,2.51-18.96,3.28-44.29,14.69-48.07,35.55-.41,2.24-1.89,18.65-1.2,19.33l9.87-2c-.3-6.68.54-13.27,2-19.77M507.81,851.96v9.9c0,2.01,4.36-.51,5.17-.77,7.96-2.52,20.46-8.78,26.75-14.31,2.06-1.81,4.43-6.2,6.26-8.59,15.15-19.78,26.48-42.16,34.68-65.76,2.01-5.78,4.66-13.34,6.05-19.19.19-.8.62-1.71.48-2.52-.41-2.33-5-5.26-3.63-8.79,1.76-1.22,6.4-.5,7.32-1.83.24-.35,2.76-7.67,2.8-8.1.07-.81-.97-1.25-.78-1.5.3-.02.77-.08.94-.29.79-.98,3.09-9.8,3.58-11.78,1.11-4.56,1.44-9.33,2.86-13.84-.43-1.49-8.9-2.92-7.82-6.43.19-.62.77-.96,1.41-.81.28,1.65,5.12,3.1,6.48,2.76,1.81-.46,2.11-5.75,1.69-5.74-3.47,2.1-6.35,1.28-10.09,1.04-2.86,10.87-6.73,21.44-10.19,32.12-13.07,40.38-25.75,84.13-54.18,117-4.21,4.87-10.52,10.93-16.31,13.62,6.13-5.42,10.86-12.24,15.35-19.04,16.67-25.25,30.15-51.82,40.45-80.28,7.73-21.36,14.5-43.15,21.36-64.78.44-1.87-1.85-2.74-2.92-4.04-.93-1.14-2.09-2.68-2.91-3.9-1.64-2.48-2.74-5.23-4.54-7.58-3.58,16.66-8.32,33.07-13.27,49.37.69,3.29-.26,2.09-.98,3.42-3.32,6.13-5.95,17.56-8.63,24.54-12.81,33.4-28.76,65.62-47.38,96.11ZM685.9,691.88c.53-.52-5.92-3.59-6.59-4.04-2.73-1.8-5.11-4.19-7.62-6.27-1.16-.33-6.89,1.26-8.55,1.64-5.64,1.3-14.57,3.42-19.8,5.43-.86.33-1.4.76-1.47,1.75h-.48c.57-1.79-3.24-.11-4.44.27-8.06,2.55-17.04,6.86-25.1,10.03-3.44,1.35-6.47,4.08-10.52,3.58l-1.45,8.05c1.43,4.45,15.74-2.56,18.63-3.48,6.93-2.19,14.15-3.52,20.89-6.33l.45-.55c-.43-2.37-.14-7.99,1.48-9.77.83-.91,7.65-2.37,9.18-2.3,4.84.2,13.03,5.94,16.34,5.96,1.82.01,5.96-1.93,8.06-2.36,3.62-.74,7.4-.67,11-1.62ZM418.76,688.92c-.6-2.54-5.2-3.94-3.98-.23l3.98.23ZM664.38,718.61c2.59.44,6.18-.32,8.9,0,3.81-6.41,3.61-12.63-2.05-17.72-3.83-3.44-16.73-9.89-21.72-10.01-1.15-.03-6.28,1.26-6.9,2-.44.53-.51,1.83-.86,2.61-.27.61-1.1,1.08-1.17,1.57-.12.83.65,2.62.3,3.73l.98-2.47c.05,1.53-.31,2.85.47,4.23.2.36,3.69,3.58,4.37,4.18,1.08.95,9.16,7.3,9.76,7.41.4.07.83,0,1.23,0-.19-2.15.45-4.77-.37-6.8-.19-.46-5.18-6.17-5.57-6.33-.85-.34-1.89.68-2.74-.18l-.71-2.03c5.02-2.16,12.59,3.21,15.33,7.17,2.6,3.76-.97,7.96-.42,12.04.39.08.89.53,1.16.57ZM344.06,708.7c.92-1.24-5.79-5.61-6.91-6.19-12.59-6.43-20.17-2.83-32.93-2.2-1.55.08-4.33-1.61-4.69,1.24-.22,1.79,1.95,10.01,3.13,11.45,5.7,3.69,16,15.27,22.38,16.46,2.58.48,12.96.34,15.81.02,5.78-.65,8.46-7.38,7.63-12.59-.22-1.38-1.02-3.29-2.61-3.23-6.54.24-14.75,4.71-21.85,4.46-4.92-.17-7.14-2.74-10.61-5.71l1.22-1.1c1.67.68,2.07,2.37,4.09,2.74.82.15,5.18-.27,6.3-.41,6.24-.77,12.9-3.47,19.05-4.95ZM395.51,700.8l-30.92,7.91c-1.58,4.74-3.97,9.14-5.32,13.97s-2.12,10.43-2.36,15.45c-.31,6.32.27,12.74.02,19.07l12.91-4.26c.91-2.67.22-5.59.45-8.36.3-3.63,1.93-10.56,1.35-13.74-.07-.38-.57-.76-.78-1.11,3.08-1.98,2.87-6.01,4.45-9.32,3.74-7.87,13.72-14.13,20.21-19.61ZM641.37,703.27c-7.51,2.33-15.14,4.41-22.64,6.8-3.65,1.16-9.02,3.99-12.35,4.46-2.66.38-4.59-.44-7.09-.16-.94,4.98-2.38,9.77-3.73,14.63-.39,1.4-.61,1.81-.84,2.59-.35,1.16-2.68,8.42-2.32,8.79l54.92-16.07c.78-.65.54-2.47.48-3.47-.25-3.96-1.15-14.89-5.2-16.58l-1.23.98v-1.98ZM722.51,720.09h13.11c1.84,0,2.29-5.25,6.81-4.84.89.08,5.92,2.37,6.95,2.95,1.98,1.11,6.81,4.31,6.79,6.61-.03,3.18-3.32,1.03-5.09,1.31-2.59.41-6.63,2.96-9.77,2.89-.83,1.16,6.45,6.34,7.77,6.82,2.69.98,11,.47,12.99-1.66.44-.47.37-1.27.66-1.55.3-.3,1.1-.21,1.78-.93.48-.51,1.34-2.29,1.38-3,.03-.47-1.23-7.4-1.45-8.23-.57-2.11-3.12-5.2-4.86-6.52-4.62-3.51-7.26-3.76-12.44-5.37-2.12-.66-3.83-2.09-6.08-2.33-2.56-.28-8.75,1.2-11.26,2.1-4.44,1.59-1.43,3.99-2.71,6.7-.34.72-5.48,4.27-4.58,5.06ZM362.86,709.21l-14.14,3.93-.21.74c1.82,3.3,1.75,6.33.4,9.82-.74,1.9-2.56,3.24-2.86,5.3l11.12-2.97,5.69-16.82ZM648.8,723.56c4.49-.76,9.58-.47,8.4-6.67-.22-1.15-3.1-3.3-4.21-4.21-.84-.69-4.94-4.02-5.68-3.47,1.16,4.71,1.77,9.48,1.49,14.35ZM726.47,710.19c-21.55,2.64-42.83,6.97-63.95,11.88l-3.83,8.65,1.59.66c13.89-3.85,27.97-7.16,42.26-9.24,4.48-.65,12.94-.54,16.52-1.78.97-.34,6.75-5.35,7.14-6.22.55-1.23.17-2.67.26-3.95ZM655.72,723.55c-4.25.77-8.5,1.8-12.68,2.89-.73.19-.63,1-.99,1.04-3.2.45-6.69.63-9.88,1.96-1.6.67-.63,1.27-.79,1.45-.74.84-2.53.11-3.39.3-5.22,1.15-13.17,3.32-18.19,5.09-.8.28-1.32-.26-1.08,1.11,4.92-.64,9.81,2.08,12.37,6.22l19.95-6.79.83-1.4.76,1.02,10.63-3.24c1.46-3.01,2.76-6.01,2.45-9.67ZM711.63,736.43c2.52-.61,4.91-1.83,7.27-2.87,1.67-.73,3.15-1.34,4.87-2.05,4.86-2.01,9.93-3.85,14.55-6.21-1.77-1.72-4.57-.29-6.65-.23-5.5.18-14.58-.43-19.68,1.1-2.43.73-4.76,3.84-7.3,4.33l.5,1.48c-2.75-.74-3.16.98-4.78,1.9-5.23,2.98-11.11,5.94-16.16,9.07-.7.43-2.52,1.37-2.31,2.39,5.4-.95,10.78-2.51,16.2-3.34,14.23-2.17,28.28-2.06,42.41-3.6,2.38-.26,4.76-1.12,7.19-1.23-.02-1.03-4.54-3.8-5.51-4.4-.43-.27-1.31-.23-1.41-.33-.14-.15.4-.98.21-1.46-1.11-2.91-5.86.39-8.14.01l.49,1.48c-6.69-.7-12.78,3.22-19.17,4.33-.55.1-2.6.61-2.59-.36ZM708.16,726.53l-27.7,3.96.5.98c-1.75.88-3.67-.03-5.07.13-5.16.58-28.55,6.61-32.7,8.87-.69.37-.77,1.24-.89,1.3-.13.07-1.09-.44-1.91-.22-4.3,1.16-12.09,3.22-15.95,4.89-2.18.94-.72,2.23-.85,4.05-.26,3.59-2.36,5.57-4.47,8.18,7.52-1.75,14.95-3.88,22.38-5.97.39-.11.37-.93.67-.95.82-.03,1.93.79,3.17-.01,0-3.02-4.33-3.29-3.49-6.12,2.13-.56,6.62-4.39,8.31-4.68.7-.12,4.3.42,5.09.65,2.72.8,6.97,4.99,8.68,5.21,1.57.21,8.31-1.87,10.5-2.33s5.33-.32,7.06-.86c4.5-1.4,15.14-9.2,19.59-12.07,1.92-1.24,4.53-2.12,6.27-3.63.51-.44,1.04-.48.82-1.4ZM596.36,747.8c1.85-.44,2.79,1.69,4.21,1.97,6.2,1.19,12.77-3.64,18.68-5.05,2.34-1.1-2.46-4.25-3.76-4.93-7.34-3.83-16.25.4-23.49,1.92-2.52.53-4.91.46-7.31,1.11-1.51,2.05,6.69,10.39,8.44,11.91,2.08,1.81,8.39,6.48,10.92,6.88,5.82.92,16.96-3.01,17.98-9.66.13-.87.56-4.36-.7-4.17-3.64.56-9.39,4.19-13.61,5.2-5.55,1.33-10.3,1.51-11.37-5.19ZM677.49,769.57c-.05-5.34-3.13-11-6.44-15.07-2.45-3.01-13.1-11.41-16.68-12.02-1.53-.26-3.19-.2-4.73-.01-1.68,2.07-5.38,1.57-5.69,4.51,3.39,4.35,4.13,9.36,6.47,14.29.83,1.75,5.2,9.77,6.54,10.28l3.79-6.09c.34-.88.98-1.83.7-2.83-.12-.43-4.52-7.03-4.96-7.43-1.45-1.33-4.44-1.23-4.72-3.93,4.89-1.92,15.07,8.79,15.74,12.74.51,3.02-1.51,3.12-2.61,4.6-.88,1.19-4.47,6.09-3.67,7.34,1.08.14,1.9,1.11,2.81,1.4,3.33,1.05,11.31,1.2,11.9-3.19.2-1.52-4.24-4.51-5.37-5.81-.27-.31-1.08-1.65-.98-1.73,3.19-.23,4.97,3.1,7.91,2.96ZM373.74,753.24v12.87c7.49-1.09,16.38-5.69,23.97-4.43,3.44.57,10.94,9.72,11.19,13.09.32,4.38-6.32,8.78-8.42,12.37,3.5,2.24,12.78,3.18,16.16.59,2.17-1.66,5.11-9.12,5.12-11.97.03-8.48-10.59-18.34-17.1-23.01s-15.91-2.67-23.61-1.35c-2.48.42-4.95.98-7.31,1.84ZM369.78,754.73c-3.53.6-7.51,1.89-10.88,3.22-7.57,3.01-16.32,7.3-23.86,10.77-3.32,1.53-6.6,3.3-9.79,5.05,4.32.28,7.48.41,10.38,3.97,1.39,1.71,1.75,3.63,3.23,5.14,9.8-5.93,20.05-11.11,30.92-14.8v-13.36ZM620.89,826.77c8.45-11.24,16.7-23.21,24.16-34.97,3.8-5.99,7.19-12.22,11.08-18.15.44-1.73-2.32-3.81-3.29-5.4-1.88-3.11-2.9-6.81-5.28-9.56-1.21,5.04-4.41,9.24-5.2,14.35l-.94-.47c-14.18,29.54-34.4,55.72-54.16,81.67-2.75,3.61-5.11,7.46-8.2,10.84,3.84.4,8.76.98,12.57.46,8.84-1.22,27.81-15.09,34.44-21.47,3.17-3.05,15.73-17.06,16.69-20.42.19-.67,0-1.86.13-2.1.02-.04.54.35.98.15,2.52-1.18,8.44-11.69,10.47-14.66,5.16-7.52,10.01-14.98,14.84-22.76.64-1.02,4.17-4.7,3.37-5.78-4.27,2.1-7.87-.24-11.84-1.78l-.79.24c-3.75,6.54-8.2,12.61-12.3,18.91-1.07,1.65-2.75,4.13-3.68,5.72-.62,1.06-1.06,3.38-1.18,3.52-.16.18-1.09.15-1.82.89-.8.81-1.59,2.9-2.41,4.03-12.77,17.43-27.04,40.02-47.75,48.23-.48.19-1.52.8-1.83.15,2.37-1.64,5.09-2.7,7.38-4.5,9.3-7.32,17.5-17.71,24.57-27.13ZM706.01,777.66c-6.99-6.45-9.53-6.08-17.63-9.34-1.34-.54-9.95-5.16-10.4-4.69l.45,7.2c7.47,4.65,15.91,7.22,23.03,12.61,4.23,3.2,7.21,6.4,7.22,12.11,0,4.41-2.72,15.64-3.84,20.44-2.83,12.17-8.06,26.28-13.42,37.54-1.87,3.93-8.01,13.09-8.88,16.36-.93,3.48.56,9.3.37,13.24-.26,5.45-2.22,10.84-3.45,16.08.47.53,2.1-1.32,2.48-1.72,14.27-14.63,27.91-46.18,32.4-66.07,1.95-8.64,6.27-35.61,1.95-42.54-1.5-2.41-8-9.11-10.29-11.23ZM374.24,807.68c5.29-4.11,27.18-29.23,27.01-34.39-.02-.52-1.63-3.6-2.06-4.17-2.53-3.4-5.37-2.73-9.12-2.01.7,2.54.55,3.77-.58,6.09-3.53,7.27-11.47,13.5-15.55,20.62-.32.5.3,1.05.3,1.24v12.62ZM373.74,771.8v11.38c0,1.8,7.21-.53,8.26-1.39s5.27-6.71,6-8.1c1.12-2.16,1.96-3.78.51-6.01-1.32-.83-14.39,2.9-14.76,4.12ZM369.78,785.16v-11.38l-1.01-.53c-2.47,1.25-5.24,2.02-7.74,3.16-3.1,1.41-21.92,11.2-22.81,12.81s-1.13,3.67-2.36,5.56c-2.78,4.25-8.05,7.32-10.61,11.65l31.06-15.94,13.47-5.33ZM677.32,774.56c-3.42,3.37-1.2,5.22,1.7,7.59,3.01,2.47,7.14,4.3,10.32,6.5.9.63,2.83,3.65,3.76,2.21.32-2.53.04-5.86-1.49-7.94-1.61-2.19-10.07-7.03-12.76-8.03-.5-.18-.95-.5-1.52-.33ZM316.04,796.47c5.04-4.75,14.11-8.56,20.08-12.32,1.95-.88-.23-4.06-1.2-5.19-6.3-7.37-16.17-1.74-22.48,2.29-6.33,4.03-14.54,8.99-13.28,17.66.24,1.62,2.76,9.94,3.46,11.38,1.43,2.94,5,5.92,6.82,9.02,1.19,2.03,1.95,4.52,3.24,6.65,3.71,6.09,9.39,10.98,11.83,17.85.83-1.13,3.49-2.63,3.14-4.07-3.5-5.37-6.88-10.83-9.72-16.56-2.18-4.38-5.52-12.29-5.98-17.27-.39-4.32,1.03-6.55,4.07-9.42ZM675.41,779.58c-.4-.23-1.44-.26-1.81-.03-8.74,14.26-17.95,28.25-27.56,41.95-1.39,1.98-3.42,2.69-2.7,5.97l-1.42-.48c-5.2,7.87-11.91,14.65-18.79,21.06,4.34,12.76,19.8,15.89,30.99,20.39,1.54.55,2.57-.55,3.68-1.39,18.21-13.75,29.46-46.69,34.3-68.26,1.25-5.56.6-5.87-3.76-9.14-3.06-2.3-7.07-4.26-10.1-6.73-.93-.76-2.64-3.23-2.83-3.34ZM680.96,861.11l1.7-.52c7.77-14.74,14.26-30.26,18.34-46.47,1.35-5.34,4-15.84,3.18-21.01-.12-.78-1.05-2.81-1.53-3.42-.54-.7-7.89-6.48-8.59-6.75-.98-.38-.75.5-.63,1.12,1.01,5.08,1.23,7.64.24,12.83-3.29,17.26-11.52,33.21-12.71,51.12-.29,4.3.19,8.79,0,13.1ZM379.18,784.42c-1.97-.23-3.63.13-5.35,1.07l-.08,5.36c.74.85,5.92-6.01,5.44-6.43ZM356.43,792.58v17.32l.99.5c1.26-1.96,12.37-12.93,12.37-13.86v-8.91c-.69-1.15-2.45,0-3.59.37-1.48.49-9.5,3.65-9.77,4.58ZM414.31,790.36h-8.16c-1.96,0-5.45-2.53-7.16-1.74-2.21,1.02-8.85,10.17-11.14,12.63-4.52,4.85-9.62,9.2-14.11,14.1v12.12c1.4,0,2.77-1.05,3.91-1.78,10.86-6.91,19.16-15.52,28.07-24.62l8.59-10.71ZM336.64,789.86c-7.87,3.57-14.43,10.55-23.14,11.98-1.5,1.08,1.44,11.54,2.62,13.26,1.2.28,8.4-10.2,9.88-11.88s12.37-11.45,10.64-13.35ZM355.44,812.87v-19.3c0-.81-1.36-.68-1.99-.52-3.02.74-11.14,5.26-14.35,6.95-4.22,2.23-15.16,7.96-17.58,11.61-1.65,2.49-.73,8.17.67,10.77.99,1.83,9.79,13.22,11.16,12.98l22.08-22.48ZM369.78,799.27l-39.36,40.58-.18.67,1.76,1.72c9.3-5.87,18.63-12.61,27.12-19.73,1.8-1.51,9.41-7.76,10.18-9.11,1.52-2.64-.44-10.66.47-14.13ZM319.32,814.61c-.63-.79-2.16,2.14-2.25,2.45-.77,2.58,1.8,6.92,3.14,9.27s6.58,10.52,8.28,12.02c1.2,1.07,3.42-.72,3.12-2.1-4.54-6.7-13.23-12.7-12.3-21.64ZM369.78,819.06c-2.58.78-4.25,3.33-6.2,4.93-5.18,4.26-11.9,9-17.58,12.6-1.56.99-11.62,6.07-11.84,6.97-.2.83,1.35,1.93,2.18,1.72l13.93-5.42.21,1.45c6.96-2.02,13.33-7.02,19.29-11.13v-11.13ZM373.82,829.03c-.3,4.13-.25,8.42-.58,12.53-.2,2.47-2.38,7.87.74,8.21.61.06,6.41-.47,6.86-.61,3.84-1.21,1.4-21.19,2.77-24.88-.53-.78-.61-.81-1.48-.56-2.37.66-5.39,4.91-8.3,5.32ZM369.29,832.42l-13.21,8.05-.64,5.8c2.86.21,5.74-.2,8.4-1.25,5.62-2.21,5.52-7.16,5.45-12.6ZM681.45,837.37c-1.32-.27-.85.33-1.23.97-4.98,8.47-8.62,16.75-15.58,24.02-1.16,1.22-6.84,5.49-6.94,5.93-.52,2.39,10.21,3.24,12.25,2.38,1.37-.57.38-2.47,2.09-2.14-1.01,4.77-5.83,3.93-9.5,3.32-9.53-1.6-29.83-9.06-36.27-16.18-1.3-1.44-3.79-6.32-5.54-5.59-1.49,1.94-5.18,2.59-4.99,5.2.54,7.41,6.55,14.32,9.07,21.14,1.88,5.08,4.5,10.23,7.06,15.21.61,1.18,4.58,8.58,5.02,8.83.49.28.96.28,1.5.23-1.17-4.05-1.78-6.68-.76-10.91.39-1.63,1.98-4.18,2.13-5.26.19-1.44-3.56-3.93-4.59-5.08-3.82-4.27-11.42-13.55-13.67-18.5-.91-1.99-1.57-4.1-1.89-6.27,4.52,7.01,10.01,12.64,16.35,18.04,4.84,4.12,13.68,10.17,19.5,13.14,4.74,2.42,5.83.91,9.44-2.45,5.99-5.57,10.92-12.36,15.46-19.19-.75-8.99-.75-18.02,1.08-26.85ZM329.61,844.21c.51-1.76-.41-3.08-2.06-1.83l-8.75,8.59-4.43,5.2c6.42-2.63,11.28-8.32,18.3-9.9.37-1.5-1.13-1.05-2.1-.86-2.15.42-3.31,1.94-5.31,2.35l4.35-3.55ZM353.95,841.82c-2.37.68-4.13,2.61-6.9,1.93.64-2.81-2.74-.7-2.5.29.99,1.28,8.83,2.8,9.4,2.24v-4.45ZM367.8,844.79c-6.5,2.53-12.91,3.36-19.79,1.73-1.5-.35-5.14-2.14-6.09-2.11-.8.03-4.73,1.06-4.29,2.34.85,1.22,15.11,6.15,17.07,5.97,1.44-.13,2.96-1.08,4.6-1.36,5.54-.94,9.71,1.05,8.51-6.58ZM443.74,847.76h-25.97c-.26,1.42.38.8,1.08,1.12,3.92,1.81,8.09,3.4,11.39,6.3,1.62,1.42,5.51,7.4,6.69,7.8l14.71,1.62,1.18-.83.29-3.17c2.23-1.6,4.04-.77,6.22.25,4.09,1.9,9.19,5.78,11.85,9.42,1.54,2.1,2.18,4.45-1.32,4.58-3.25.12-9.91-10.63-13.27-12.25-1.22-.52-.76,1.94-.49,2.47.36.73,3.71,2.65,4.15,4.3.23.73-.26,1.54-.93,1.87-2.23,1.09-13.8-2.3-17.1-2.2-2.14-.29,1.14,3.49,1.51,3.94,7.09,8.54,15.43,13.78,26.72,13.4,3.34-.11,8.16-3.02,9.04-6.35.28-1.06-.03-2.18.23-3.23s1.17-2.13,1.27-3.19c.36-4.05-2.72-11.59-5.34-14.73-3.19-3.83-20.26-15.26-24.91-14.47-1.34.23-5.24,3.04-7,3.33ZM334.8,847.33c-.66-.18-6.5,1.82-6.57,2.17.99,1.74,3.53,6.17,5.3,6.56,3.67.82,6.96-1.01,10.53-1.38l-.02-1.45M434.59,862.6c.41-.34-3.51-5.16-4.01-5.64-5.46-5.2-14.99-8.91-22.48-8.73-8.45.2-16.91,1.05-25.26,1.95-3.21.34-6.57.08-9.78.61l-4.61,9.86-20.59-5.8c-12.93,3.72-26.84,6.19-39.62,10.28-.55.18-1.19.16-1.28.94,4.86.67,10.06,1.99,14.01,5.04,1.66,1.28,2.77,3.85,4.51,3.9,32.97-9.56,66.03-13.95,100.47-12.91,2.71.08,5.74.97,8.63.51ZM332.09,856.25c-.11-.18-1.08-.32-1.42-.78-.5-.68-.34-1.6-.74-2.24s-2.97-3.07-3.81-2.94c-1.2.19-8.28,5.61-10.1,6.77-3.37,2.13-8.84,3.32-10.04,7.52l26.22-6.93c-.05-.44.14-.99-.1-1.39ZM358.41,852.71c-1.51,1.28,5.04,2.06,5.69,2.02,1.66-.09,1.93-1.03,2.71-2.27-.09-1.78-7.1.62-8.4.25ZM500.88,866.07c3.92-1.41,6.26-2.11,6.33-6.69.02-1.49-.8-3.49-.4-5.19l-8.9,11.14.24.73,2.72-1.49v1.49ZM283.6,878.07c.19.13.33.99.89,1.29,1.35.75,5.07,2.45,6.5,2.92,8.05,2.61,22.15-5.26,30.6-6.28l1.2-.79c-3.2-5.7-13.78-8.84-20.04-8.69-4.6.11-12.55,4.57-17.45,4.89-1.28.08-1.85-.76-2.88-.89-2.44-.31-3.66,3.91-6.55,4.04-.41,3.5-.22,5.76,1.91,8.57,3.48,4.57,20.93,15.19,26.58,15.96,4.02.55,11.69-1.2,15.14-3.4,4.25-2.72,8.36-10.44,5.96-15.31-1.98.05-3.85.71-5.75,1.17-6.4,1.53-19.04,6.54-24.89,5.81-2.58-.32-11.94-6.35-12.6-8.68-.28-1.07.91-.91,1.37-.6ZM447.13,878.26c-2.61-2.55-5-5.92-7.31-8.77-2.37-1.51-15.71-1.39-19.32-1.46-14.73-.28-30.75-.65-45.48,1.53-1.15.17-2.22.56-3.02,1.44l-.92-.99-15.77,2.61-27.76,6.75c-.98.57-.22,3.78-.37,5.19-.31,2.84-1.78,5.71-3.3,8.08-.94,1.47-2.76,2.25-2.58,4.09,16.76-3.68,33.4-7.98,50.34-10.75,20.15-.8,40.4-3.57,60.73-2.63,7.49.35,14.94,2.12,22.49,1.5-2.31-2.47-5.33-4.25-7.74-6.6ZM644.53,905.95c1.82,1.65,7.36,6.61,9.22,7.36,3.42,1.38,7.54.38,10.88-.99s10.2-6.95,12.19-10.07,4.25-11.83,4.64-15.65c.16-1.54.17-11.98-.25-12.63-.31-.48-.69-.58-1.24-.49-1.6,3.33-3.98,6.83-6.24,9.84-2.84,3.78-8.37,10.53-12.1,13.13-5.66,3.94-4.24,1.84-7.64-1.2-.9-.81-8.53-6.44-9.18-6.7s-1.41.33-1.45.27c-.14-.21.23-1.29-.11-1.88-.08-.14-2.57-1.81-2.86-1.59-1.29,3.88-2.33,6.79-1.85,10.99.61,5.38,2.37,6.32,5.98,9.6Z"/>
  <path d="M504.22,232.07c5.4,6.65,9.26,14.2,6.29,22.88-3.02,8.83-5.71,12.04-6.22,21.98l-.95-.19c-.66,0-1.05,1.46-1.22,1.99-2.26,6.98-3.49,14.3-5.44,21.27-5.09,18.11-11.02,36.51-16.82,54.43-4.5,13.88-12.97,43.2-25.63,51.06-3.47,2.15-3.52.66-6.52.86s-5.32,2.74-9.12.74c-1.08-.57-3.49-2.04-4.66-2.76-4.11-2.52-7.1-6.08-10.43-9.36s-3.3-9.89-4.21-14.1c-5.84-.26-11.77-.39-17.62-.24-23.18.61-43.75,5.17-66.26,7.45-8.81.89-18.31-.36-26.75-2.84-1.01.18-2.43,11.01-5.67,12.47-2.18.98-10.46-1.37-13.33-1.5-9.86-8.5-21.63-18.18-26.61-30.78-6.23-15.78-12.66-29.73-16.8-46.53-4.76-19.33-4.23-42.86-10.93-60.82-.29-.78-1.19-1.19-1.47-1.99-1.43-4.15-2.8-11.35-2.58-15.71.07-1.34,1.63-10.5,2.09-11.05.15-.18.88-.03,1.17-.26.39-.31.38-.92,1.15-1.12,2.05-.55,4.37,1.94,6.14,2.86,8.18,4.28,15.31,7.84,23.06,13.06,1.08.73,1.71,2.37,3.23,2.23,2.4-.22,4.68-10.84,6.09-13.25,4.3-7.33,24.7-10.46,32.68-12.34,44.51-10.46,89.57-20.47,135.89-18.01,5.3.28,11.63,2.36,16.3,2.53,2.77.1,5.95-1.69,8.3-1.41,7.95.95,18.58,13,24.86,18.19,3.34,2.76,6.98,5.22,10.37,7.93.89-.58.7-1.32.77-2.2M475.45,208.65c-4.21-3.02-7.1-3.84-12.29-3.05-6.01.92-6.43-.3-12.05-1.05-26.98-3.62-54.24.45-80.96,3.51l-2.32,1.87c.33-1.66-3.32-1.03-4.58-.86-13.88,1.92-29.49,6.51-43.3,9.63-3.88.88-8.16.72-11.78,2.56-.52.27-.93-.26-.71,1.03,3.04.41,6.93,1.17,9.75,2.38,3.02,1.29,5.37,3.97,8.29,5.09,7.15-1.72,14.27-3.68,21.44-5.34,28.88-6.69,61.52-12.49,91.36-12,16.05.26,30.69.25,44.04,10.38,2.6,1.98,12.21,11.79,13.23,14.48,1.77,4.68-1.23,6.1-2.99,9.6-.94,1.87-4.73,13.78-4.56,15.25.23,1.97,7.26,3.77,9.15,3.72,1.45-.04,5.91-1.12,6.21-2.74l-.1-30.58c-3.91-5.1-9.63-8.18-14.48-12.24-4.29-3.6-8.83-8.44-13.32-11.66ZM460.81,226.26c1.06-8.92-2.81-11.78-11.13-12.36-31.32-2.21-76.34,7.65-107.01,15.67-4.68,1.22-9.31,2.69-13.92,4.14.14,2.53,2.33,3.89,2.48,6.68s-1.51,4.7-1.53,7.3l4.66,2.29,31.99-7.62c1.26-.69-1.95-3.19-2.27-4.19-1.38-4.43.54-5.44,3.86-6.99.41-.19.33-.86.61-.87,5.15-.18,9.63-.18,14.45,2.31,1.34.69,2.7,2.23,3.76,2.69,2.36,1.02,9.93-2.84,12.84-3.73,5.43-1.66,11.58-3.31,17.1-4.67,9.46-2.33,27.7-6.8,36.84-4.47,2.81.72,4.69,2.88,7.29,3.83ZM482.57,256.94c.61-6.66,4.25-13.09,3.71-19.79-4.18-3.98-7-9.16-10.86-13.39-1.02-1.12-4.4-4.6-5.46-5.42-3.35-2.6-6.25-1.7-10.14-2.47.82,1.85,2.15,3.66,2.43,5.73,1.58,11.53-2.93,32.78-5.04,44.85-2.43,13.94-9.05,35.24-7.23,48.57,1.3,9.54,4.83,18.95,9.09,27.51.65-.46.93-1.01,1.26-1.7,3.58-7.34,7.51-22.84,9.84-31.23,3.89-13.99,6.93-28.13,9.56-42.39.51-2.78,2.58-6.49,1.28-8.98-.76-1.47-2.48-2-3.39-3.03-1.84-2.1-3.16-4.46-4.44-6.93.64-.63.5-.98,1.2-.22.82.89,6.3,10.66,8.19,8.88ZM322.79,230.71c1.53-2.1-8.22-6-9.67-6.4-10.07-2.76-23.48.23-32.71,4.84-7.1,3.54-6.38,9.02-9.21,15.53-1.14,2.63-4.29,9.47-5.7,11.61-1.21,1.83-2.9,3.31-5.04,1.89.74-1.05,2.58-.64,3.34-1.36.64-.6,3.14-6.27,3.37-7.31.52-2.28-2.28-3.89-3.89-5.05-6.57-4.75-13.95-8.4-21.15-12-2.02-1.01-4.07-3.51-6.59-2.66s-1.49,7.1-1.84,9.05c-.24,1.32-1.43,2.09-1.41,3.93.01.85,1.28,7.25,1.55,8.35,1.89,7.74,9.76,21.51,14.97,27.58,3.56,4.15,7.73,7.44,12.62,9.89-.39-8.18.12-17-5.23-23.71-.96-1.2-2.34-1.9-3-2.69-3.81-4.56-8.24-9.95-8.58-16.15l3.14,4.28c2.17.94,3.33,2.97,4.82,4.33,8.65,7.9,13.81,8.95,14.81,22.34.08,1.06-.58,2.07-.51,2.94.26,3.32.61,6.77,1.34,10.03l.47.63c7.53.44,15.21-9.78,15.47-16.68.08-2.05-2.16-9.62-3.15-11.58-2.41-4.74-11.54-9.33-5.97-15.33,3.97-4.28,7.92.15,11.64,1.74,7.15,3.05,16.22,6.8,23.98,6.18,2.04-.16,4.08-1.15,6.19-.98-4.64-9.27,4.01-11.37,11.06-7.45,2.98-1.85,2.24-11.49-.92-11.87-1.09-.13-8.44,2.27-10.05,2.84-3.3,1.17-8,4.09-11.26,4.57-6.59.97-15.92-2.23-22.72-2.44l-6.68,1.73c5.29-5.75,13.14-3.74,20.03-4.21,9.21-.64,17.7-3.99,26.47-6.43ZM458.63,226.48c-.74-.65-2.55-1.89-3.42-2.29-7.33-3.3-28.88,1.48-37.25,3.49-9.63,2.3-18.93,5.62-28.38,8.48-.2.75.2.82.49,1.24,1.71,2.48,4.79,4.77,6.64,7.7,6.71,10.62.62,20.79,1.75,32.4.6,6.22,6.21,7.14,11.54,6.05,1.78-.36,3.41-2.2,5.55-2.39,3.68-.32,8.58,2.3,11.59,4.26,3.49,2.27,10.65,7.78,12.5,11.25,5.21,9.78-.05,18.73-10.75,19.64-7.61.65-15.72.39-23.25.5-1.89.03-4.12-.21-5.93,0s-3.74,1.47-5.46,1.51c-1.44.04-2.62-.61-4.37-.48-2.85.22-18.25,5.47-19.83,7.41-.26.32-.25,1.01-.28,1.45l-.72-.98-4.22,1.97,4.19-4.46.26-1.96c.9-.2.31.83.49.99.81.7,14.88-12.31,16.85-13.15.26-1.63-3.44-3.35-4.75-4.65-2.23-2.23-7.31-8.84-8.85-11.42-1.19-2.01-2.06-7.01-3.27-9.38l-.98,1.97c.63-6.39-.85-14.38-.04-20.57.12-.92.93-.65,1.02-1.05.5-2.16.66-9.38.5-11.78-.04-.69-.78-6.65-1.47-5.7l-.49,1.98-.08-4.62-1.05-.73-31.03,7.58-.25,1.25c5.93,4.68,10.48,9.9,11.51,17.68.14,1.07-.43,4.44.38,4.57.36.06,3.32-3.27,3.7-3.82.64-.93,1.09-4.45,2.97-3.85-2.42,5.19-4.74,10.47-6.29,15.98-2.16,7.68-2.56,15.74-4.23,23.48-1.93,9.01-5.07,17.83-7.41,26.74-6.94,8.86-14.97,13.07-22.36,1.8-3.81-5.82-6.38-12.5-6.74-19.49-.1-1.93.66-7.31,1.38-9.05.87-2.09,3.21-2.44,4.3-3.61,2.97-3.2,7.05-26.85,8.03-32.55.42-2.47,1.44-6.13.76-8.36-.31-1.03-3.57-6.32-4.37-6.47-4.39.33-8.25,1.8-12.68,1.25-2.76-.34-6.68-1.99-9.41-2.96-3.25-1.16-15.05-6.98-17.3-6.72-1.82.21-3.46,1.98-3.76,3.75-.68,4.09,6.35,8.31,8.25,11.83,3.76,6.97,4.3,24.51,5.58,33.02,3.3,22.03,6.69,44.09,14.35,65.06.84.27,1.68.02,2.52-.07,7.94-.86,18.45-4.43,26.51-6.15,11.91-2.54,24.01-4.42,35.86-7.18.88-.2,1.67-1.19,2.09-1.22.46-.02,1.35.83,2.46.84,8.13.1,20.88-1.4,29.14-2.56,9.15-1.28,9.99-3.33,20.12-.7,4.25,1.11,8.06,3.3,12.35,4.23,0-.78.2-1.52.48-2.24,6.75-17.58,12.99-35.73,17.22-54.03,1.73-18.23,8.41-37.7,9.51-55.81.2-3.3.4-6.65-2.17-8.93ZM375.72,239.62c5.26-.53,10.3,4.01,10.89,9.15.46,4.05-1.36,8.04-.03,11.91,5.14,1.16,9.7-1.03,11.27-6.11,1.15-3.72-.39-6.1-2.42-9.18-5.95-9.01-17.65-17.11-28.72-12.57-3.27,1.34-1.38,6.4.86,7.83.6.38,1.18-.08,1.21-.03.62,1.01,1.16,3.62,2.49,5.8,2.99,4.9,6.04,8.99,10.65,12.49.89-.59.71-1.31.77-2.2.12-1.77-.39-7.44-.74-9.2-.53-2.64-3.06-6.07-5.88-6.4l-.34-1.49ZM505.27,234.24l-1.43.23.51,28.41c4.65-3.65,6.86-12.63,5.71-18.34-.23-1.13-4.31-9.99-4.79-10.3ZM334.78,273.65c2.01,2.01,7.01,1.23,8.99-.92,7.03-7.65-6.8-18.69-12.61-22.43-4.27-2.75-10.67-7.32-14.73-1.91-.28,1.03.31,2.15.68,3.1.81,2.09,7.84,13.41,9.38,15.35,1.22,1.54,3.15,2.91,4.46,4.44,3.08-5.81-1.58-9.11-3.71-13.84.93-.21,1.17.53,1.73.99.89.74,3.94,3.66,4.41,4.49,1.64,2.92-.06,9.28,1.39,10.73ZM382.54,260.51c-4.53-2.21-6.79-6.57-9.87-10.17-.44-.51-.48-1.04-1.4-.82-.18,6.53-.37,13.03-.48,19.56-.22,13.41-.49,18.21,7.69,29.38,1.36,1.86,7.71,9.17,9.74,8.88.72-.1,7.42-6.26,8.54-7.35.58-.56,1.37-1.06,1.22-1.98-3.21-.4-5.54-3.39-7.95-4.68-.6-.32-1.68-.15-1.87-.34-.18-.17-.05-1.29-.34-1.87-.83-1.68-2.13-3.03-2.93-5-3.29-8.11-1.85-17.09-2.34-25.62ZM398.97,282.17c-3.5-7.93-.29-16.98-.74-25.23-2.37,3.71-6.85,6.59-11.34,5l-.55.41c.17,3.01-1.35,10.47.26,12.66.38.52,3.3,2.91,4.01,3.41,1.1.78,7.54,4.53,8.37,3.75ZM503.35,265.84c-4.15.81-7.16,1.52-11.37.24-1.62-.49-3.01-2.12-4.93-1.71-6.39,29.09-14.25,57.84-24.23,85.89.73,5.39,3.12,10.5,4.27,15.93.97,4.55,1.69,9.31,1.63,13.95,1.42.27.79-.39,1.12-1.08,3.21-6.9,5.23-14.42,7.65-21.57,7.58-22.43,14.57-45.35,20.57-68,1.43-5.4,4.38-13.01,5.17-18.08.29-1.84.05-3.73.12-5.57ZM331.11,272.86l-7.82-8.01c-.63,7.05-2.81,13.78-4.31,20.68-1.04,4.75-1.49,13.63-4.66,17.6-.97,1.22-3.35,1.73-3.92,2.64-1.25,2.01-.65,6.08-1.93,8.37.36,7.37,5.32,22.35,12.5,25.52,5.94,2.62,12.11-3.72,15.03-8.41,1.6-8.46,5.1-16.93,6.96-25.2.89-3.94,1.37-9.66,1.7-13.63.39-4.72,3.63-11.31,4.36-15.94.05-.29.13-.81-.25-.74-3.41,3.69-5.1,8.37-8.17,12.47-2.85,3.8-9.89,10.07-11.63,13.75-1.18,2.51-3.3,10.67-4.05,13.76-.15.63-.86,3.82-.64,4.06l1-.23c2.86-5.38,5.35-11.12,8.31-16.42,2.04-3.65,4.7-8.37,7-11.28.25-.32,2.13-4.01,1.94-2.06-.06.59-.4,2.85-.58,3.15-.15.26-1.03.42-1.47,1.24-4.73,8.83-9.99,19.88-12.53,29.54-1.05,3.97-.05,11.58-6.39,6.45-3.6-2.91-2.48-4.37-3.37-8.5-.47-2.17-1.78-4.11-1.36-6.5.24-.98,2.9-.57,3.4-.9.29-.19,2.24-5.85,2.1-6.53-1.73-.07-6.59-4.61-2.97-3.58,1.43.41,2.72,3.56,4.31.43.99-1.96,2.32-7.49,2.98-9.93.47-1.76.99-4,1.45-5.93s3.44-15.13,3.02-15.86ZM261.81,289.72c-8.13-3.03-12.86-8.91-17.59-15.8-1.51-2.2-2.61-4.93-4.54-6.59.75,6.13,1.18,12.38,2.03,18.5.79,5.62,2.1,11.27,2.9,16.89.35,2.46.03,5.77.61,8.29,2.15,9.36,15.07,20.41,24.13,23.12l-4.88-24.06-2.66-20.35ZM346.53,271.79l-3.48,3.19-2.44,1.07-6.2-.8-4.2,22.77c1.16-.82,2.95-2.44,3.53-3.7.47-1.03-.12-1.66-.06-1.72.08-.07,1.2-.1,2-.74,1.56-1.24,4.47-5.03,5.62-6.76,2.67-4.02,5.07-8.39,5.24-13.31ZM433.62,293.03c-.05-.03.47-.68,0-1.18-3.41-3.65-13.37-10.15-18.44-9.58-1.78.2-3.13,1.71-4.71,2.25-6.68,2.3-18.26-2.42-23.14-7.29-2.1-.45-.33,4.57.02,5.43,1.91,4.67,5.17,7.2,9.79,9.01,1.91.75,9.66,3,7.52-1.09-.5-.95-2.43-.99-2.23-2.47,3.19.1,4.49,2.41,3.95,5.44,1.94-.37,5.39-.11,7.08-.6,1.48-.42,2.58-3.57,5.81-3.16,2.2.29,2.87,2.03,3.95,2.51.81.36,2.1.09,2.39.33.17.15.1,1.09.58,1.63,1.02,1.14,6.8,4.17,6.35,6.39-2.36,4.73-6.45,2.69-10.73,4.11l-11.46,3.4c3.86,7.18,12.97,8.05,20.41,7.04s11.45-7.73,9.44-14.63c-.48-1.64-2.79-5.81-4.07-6.81-1.13-.89-2.13-.5-2.5-.73ZM285.81,292.97c-.08-.2.5-1.72.42-2.62-.38-4.04-.89-8.12-1.54-12.12-1.38,1.75-2.32,4.23-3.55,6.09-2.51,3.81-7.97,8.17-12.78,7.26-.21,5.65,1.26,11.13,1.92,16.64.17,1.44-.07,2.89.12,4.33,1.09,8.03,2.44,16.14,4.51,23.94,6.12,2.19,12.15,5.02,17.31,9.02.74.58,5.11,5.54,5.82,4.95-2.01-5.99-3.88-12.09-5.21-18.29-2.4-11.19-3.21-29.89-7.03-39.2ZM423.19,299.47c.49-.69-1-3.53-2.2-3.45-.26,2.95-3.87,4.09-6.49,4.4-5.13.62-10.25-.22-15.21-1.38-3.1,2.61-5.91,5.74-8.99,8.35-5.13,4.35-11.93,8.64-16.57,13.12-.53.52-1.16.87-.98,1.74,5.16-1.2,11.46-4.72,16.61-5.4,6.69-.88,13.08-.5,19.75-.5,2.41,0,5.08-.99,7.66-.54l-8.62-7.38c-5.86,2.04-12.12,2.82-17.99,4.77-1.34.45-2.66,1.44-4.05,1.89-.48.16-1.59.68-1.49-.25l38.57-15.37ZM448.94,365.8c.98.19,1.19-.46,1.58-1.14,2.14-3.65,5.48-11.58,7.07-15.7.42-1.1,1.27-3.12,1.27-4.2-.01-2-4.51-9.78-5.48-12.35-1.98-5.25-3.57-12.31-4.37-17.89-.24-1.68.64-4.24-1.05-5.13l-13.35,38.38.47.96c7.39,3.4,12.28,8.98,13.86,17.07ZM248.98,319.9c-.49-.32-1.73-.38-1.33.56,2.79,7.41,4.25,15.29,6.98,22.71s6.73,13.65,9.55,21.62c3.59,10.15,16.47,23.9,25.6,29.22,3.44,2,2.46.89,6.01,1.51,2,.35,5.09,2.09,6.9.9,1.38-.9,4.78-10.66,4.04-11.83-.21-.32-4.49-2.7-5.45-3.47-2-1.61-6.93-7.72-8.43-8.4-.26-.12-.84-.09-.73.24,3.13,5.23,4.8,11.12,6.79,16.83-.58,1.11-1.15,1.33-2.34,1.03-.31-.08-3.65-1.31-3.82-1.42-.29-.19-.43-.98-.86-1.35-4.14-3.49-8.53-7.35-11.15-12.12l2.97-1.49.44-.91c-7.53-11.36-9.95-24.89-14.26-37.6-7.11-2.85-13.61-7.37-18.82-12.97-.54-.58-1.9-2.96-2.09-3.08ZM300.98,361.3c-.03-5.96-3.98-10.51-8.35-14.07-4.89-3.98-10.9-7.05-16.83-9.14-.92,1.03,3.37,12.48,4.08,14.47,2.36,6.68,4.92,13.61,8.54,19.67-.58-7.88-3.33-15.76-3.21-23.75l3.96,16.33c1.66.4.55-1.5,1.79-1.93s2.83.51,4.26.35c1.63-.18,4-1.68,5.78-1.94ZM399.96,363.33c-.55.49,2.25,3.07,2.71,3.47,5.7,5.02,15.31,11.13,22.83,12.3,2.36.37,11.51,1.46,13.05.3.62-.47.55-2.01,1.27-2.22,1.44-.41,1.19,2.06,4.19-.24,5.91-4.53,4.5-12,1.4-17.75-5.73-10.66-30.39-19.19-41.79-14.23l-24.43,2.04c-.58.39,4.46,2.32,5.02,2.64,3.78,2.2,6.75,5.59,10.59,7.72,2.18.49,4.37-.44,6.39-.49,2.83-.07,17.43.47,18.57-.23.44-.27.79-1.38,1.5-1.96,2.51-2.05,5.97-1.28,8.78-.4,2.49.77,10.4,4.9,12.22,6.58.84.77,4.23,4.92,3.22,5.93-1.38.11-2.49.06-3.83-.38-2.91-.94-9.21-6.65-12.74-8.53-1.76-.94-3.6-2.11-5.69-1.97.04,1.94,2.84,2.01,4.21,2.96,1.64,1.14,3.49,4.42.76,5.22l-28.22-.76ZM392.04,357.38c.13-.18-.75-1.39-1.03-1.68-11.85-12.25-24.37-7.2-38.43-4.39-8.96,1.79-17.99,3.24-26.83,5.58,1.24,1.53,4.1,1.51,5.92,2.23,2.8,1.11,5.94,3.53,7.58,6.04l1.07.41c8.78-1.98,17.66-3.96,26.52-5.43,2.63-.44,3.59-.48,6.13-.76,6.35-.71,12.73-1.22,19.06-2ZM438.21,395.34c-.47-.53-1.99-4.46-2.01-5.13-.05-1.75,3.48-6.25,1.39-8.85-3.7-.49-7.46-.11-11.18-.2-1.57-.04-4.47-1.45-5.42.47-.86,1.72,1.66,9.85,2.79,11.57.3.46,6.85,7.52,7.38,7.96,1.19,1,8.29,4.96,9.66,5.18,2.98.48,3.87-.67,5.93-.93,1.6-.2,3.34.19,4.89-.06,3.79-.6,9.82-8.69,11.74-12.01,5.8-10.05,5-16.03,2.74-27.15-.81-3.98-1.93-8.96-4.06-12.27-2.58,6.14-4.82,12.48-7.74,18.48-1.56,3.2-5.08,10.51-7.61,12.68-1.03.89-2.51.42-3.35-.46-.43-.46-1.6-6.24-3.09-4-.63,5.45,4.16,11.1.99,16.35-.38.08-2.73-1.28-3.05-1.64ZM338.12,366.29c1.04-1.02-3.82-4.59-4.61-5.04-6.59-3.8-13.54-3-20.75-1.76-5.42.94-13.25,4.39-18,4.8-1.66.14-3.9-1.59-4.12,1.79s7.64,11.08,10.37,13.33c6.46,5.34,20.19,8.49,28.45,7.66,7.97-.8,13.23-8.44,11.17-16.11-.71-.37-1.45-.24-2.2-.18-9.45.84-25.18,7.22-33.86,5.06-1.13-.28-6.08-2.59-5.31-4.12,1.28-2.53,1.98.52,3.6.89,9.27,2.1,25.42-6.04,35.26-6.33ZM369.29,365.31l-26.72,4.69c-1,.76-.27,5.3-.51,6.91-.26,1.75-2.21,5.5-3.43,6.82-.48.51-3.73,2.23-2.97,2.86,5.59-1.24,11.36-1.26,17-2.04s11.41-2.42,17.06-3.13c13.98-1.76,28.41-1.19,42.38-1.71,2.35-.09,4.7-.91,7.16-.54-3.27-2.52-7.13-4.19-10.54-6.52-2.04-1.39-4.57-3.32-6.51-4.87-1.54-1.23-3.18-3.78-4.92-4.48-2.46-.99-8.05.34-10.93.52-5.53.36-11.07.28-16.54,1.51M283.21,375.7c-1.33,1.29,6.45,6.12,7.58,6.53,2.4.85.56-2.9-.38-3.59-.79-.58-1.87-.43-2.61-.85-1.52-.86-2.41-2.54-4.59-2.09Z"/>
  <path d="M789.29,449.43c-1.9,0-3,1.64-4.82,2.34-13.63,5.24-52.54-1.38-66.67-6.79-21.5-8.23-37.94-35.05-51.7-52.69-4.56-5.85-10.48-14.09-15.33-19.31-.92-.99-2.46-3.3-3.39-1.44l-8.14,14.87c-13.6,18.52-31.56,36.37-52.26,46.93-18.81,9.6-32.19,9.75-52.75,6.72-1.75-.26-3.66.18-5.36-.08-1.54-.24-6.46-3.76-7.94-4.92-2.84-2.23-5.88-5.49-8.66-7.91,2.04-.12,4.15.16,6.18-.01,39.57-3.23,80.45-37.05,99.59-70.6,2.27-3.97,7.66-12.29,5.54-16.63-3.81-3.48-6.73-7.9-10.14-11.74-5.34-6-12.65-14.12-19.4-18.2-8.23-4.97-20.97-7.54-27.86-13.7-1.04-.93-2.04-2.77-2.69-3.25s-1.7-.4-1.76-.47c-.07-.07.56-.94.31-1.97-.55-2.21-2.89-3.82-3.27-7.18-.23-2.04-.18-10.2,1.1-11.52,1.41-1.45,9.14-.29,11.37.03,11.4,1.64,24.72,4.88,34.49,11.03,4.38,2.76,10.28,7.4,13.75,10.62,6.31,5.85,13.46,10.79,19.18,17.28,1.75,0,4.19-9.4,4.67-11.15,1.47-5.34,4.02-14.97,3.98-20.26-.02-3.06-3.98-7-6.17-9.18-.46-.45-1.56-.93-1.64-1.07-.42-.75-1.66-9.26-1.61-10.51.11-2.69,1.92-6.11,1.83-9.07,1.97-1.38,2.66-4.93,5.36-5.11,2.54-.17,7.3,4.82,10.3,6.07,6.99,2.91,6.84,1.97,12.46,7.82,8.41,8.75,12.32,12.58,10.56,25.42-1.65,12.03-5.72,27.4-9.47,39.02-1.58,4.89-4.46,9.71-5.07,14.72,2.48,2.91,5.45,5.56,7.94,8.42,21.19,24.38,43.35,46.7,74.19,58.4,10.51,3.99,28.96,7.74,36.7,15.49,1.31,1.32,3.02,4.56,4.6,5.93.56.49.82.37,1.5.34l1.47,9.66c.29,2.35,2.64,5.8,2.47,8.38-.11,1.68-2.04,2.39-2.19,4.97M662.95,255.16c-3.42-2.97-5.09-2.28-8.74-3.89-2.67-1.18-5.72-4.36-8.03-5.35-.85-.36-1.34-.41-2.21-.04-.3.13-3.38,5.17-3.48,5.48-.76,2.47-.98,11.59-.57,14.21.6,3.83,4.33,6.28,6.39,8.95,2.19,2.85,3.89,6.63,6.24,9.59.81,1.02,4.32,5.9,5.64,4.99.8-3.96,2.07-7.96,1.99-12.02-3.76-1.78-13.44-14.94-12.81-18.36.06-.3.74-.93.92-.79,2.41,6.87,11.17,9.96,15.35,15.08.82,1,2.92,4.34,2.92,5.46,0,1.04-3.25,7.61-3.7,9.62-.24,1.07-.29,2.12-.25,3.21,2.37,1.41,3.88,2.55,6.96,1.27l-1.48-1.47c10,2.36,10.95-14.28,8.49-20.13-1.26-3.02-10.85-13.38-13.63-15.79ZM594.27,292.19c.2.11.4.93.91,1.29,1.46,1.03,3.06,1.89,4.49,2.98,3.38.54.42-8.98-.25-10.66-.91-2.28-2.71-5.77-4.86-7.02-4.29-2.48-20.27-5.25-25.72-5.94s-9.01-2.27-9.08,4.63c-.04,4.2.98,9.85,3.53,13.28,1.12,1.51,2.3,1.21,2.41,1.32.06.06-.58,1-.43,1.62.34,1.52,9.75,6.79,11.65,7.68,7.48,3.55,15.81,5.34,21.91-1.64,0-.77-8.65-5.6-10.04-6.28-2.28-1.11-6.64-3.03-8.98-3.88-5.02-1.83-10.39-.69-13.07-6.74-.22-2.5,4.71.8,5.78,1.17,6.28,2.12,11.18,3.47,17.27,6.48,1.64.81,3.94,1.41,4.49,1.71ZM614.17,291.57c.31-.39-.19-.92-.48-1.25-1.02-1.17-6.01-4.76-7.57-5.79-2.22-1.47-4.52-3.07-7.28-3.35,1.69,5.65,4.33,10.11,2.69,16.33,10.99,7.49,21.1,16.03,30.21,25.72,2.84,3.03,4.55,4.82,7.53,7.55.58.54,1.88,4.66,3.84,5.31.86,0,5.75-12.08,4.96-13.83-.17-.38-4.92-5.28-5.75-6.15-3.38-3.54-7.22-7.46-10.89-10.86-2.03-1.88-13.81-12.35-15.3-12.92-1.02-.39-1.89-.33-2.94-.28-.21-.88.85-.33.98-.49ZM641.03,313.7c.62.72,2.37,1.83,3.32,2.86,1.16,1.26,2.26,3.26,3.7,4.22.54.36.35.77.98,0l8.56-27.6c.27-3.44-1.39-3.12-2.87-4.81-.99-1.13-5.13-6.94-5.7-7.17-.93-.38-.99,1.3-1.09,1.87-1.71,10.16-3.61,19.5-7.43,29.14-.07.57.15,1.07.52,1.5ZM655.04,328.38c2.37,2.33,4.88,4.52,6.86,7.22.84,0,5.35-11.2,5.92-12.87,1.58-4.68,3.34-10.9,4.57-15.71,1.41-5.47,2.95-11.3,3.11-16.93-1.72,1.83-6.58,4.01-9.13,3.97-1.19-.02-3.62-1.27-4.49-.03-1.71,10.55-6.22,20.29-9.11,30.51-.28,2.86.81,2.41,2.27,3.84ZM616.47,313.02c-3.1-2.81-6.37-5.85-9.75-8.3-.86-.62-5.82-4.06-6.27-4.17-.92-.23-3.7,2.44-5.07,3.15-1.88.99-3.85,1.16-5.44,2.47,4.69,2.96,8.99,5.33,13.04,9.22,11.43,10.98,20.26,24.56,30.73,36.07.46.5,2.1,2.41,2.72,1.97.37-2.22,1.89-3.95,2.74-5.92.35-.8.05-1.91.35-2.62.45-1.09,2.61-3.2,2.3-4.47-.26-1.08-1.79-1.41-2.27-1.99-7.37-8.93-14.46-17.6-23.08-25.41ZM670.28,346.29c-5.89-6.4-11.83-12.72-17.77-19.09l-1.27,1.2c.04,3.04-4.58,10.21-3.6,12.53l42.72,43.67c-.37-6.55-1.93-13.99-4.44-20.05-2.14-5.17-3.85-5.05-7.19-8.64-2.89-3.11-5.57-6.5-8.44-9.61ZM596.07,404.11c3.26-2.69,6.63-5.46,9.69-8.36,12.17-11.54,21.24-24.83,29.31-39.49l.14-1.82-9.41-10.41c-1.37,1.26-1.37,3.24-2.15,4.79-15.33,30.42-43.35,57.56-74.45,71.5-12,5.38-19.2,6.76-32.25,7.83-.73.06-1.44-.4-1.23.73.81.85,1.63,1.67,2.5,2.46,1.49,1.36,7.61,6.32,9.23,7.08.84.39,12.83,1.97,14.71,2.11,12.8.96,24.93.06,36.86-4.73,24.62-9.89,49.32-33.94,62.75-56.49,1.52-2.55,6.07-9.28,4.57-11.82-.46-.78-4.67-5.59-5.45-6.31-.1-.09-2.12-1.39-2.23-1.33-13.74,26.49-34.16,49.16-60.95,62.75-13.63,6.91-31.74,13.66-46.99,9.06-.81-.24-1.39.4-1.15-1.05,8.41,1.09,17.58-1.23,25.62-3.82,14.37-4.64,29.29-13.14,40.88-22.7ZM652.96,352.73c-.96-1.07-6.53-8.45-7.62-7.71-.62,3.62-6.31,10.71-5.19,13.83,13.04,15.41,25.68,31.16,37.99,47.15,4.38,5.69,8.13,11.8,13.03,17.14.5.55,3.11,3.52,3.64,3.02-4.07-9.99-4.75-21.09-4.71-31.66-12.02-14.25-24.67-27.95-37.13-41.78ZM688.36,364.82l-.98.24c1.52,6.98,3.93,13.88,4.06,21.17,9.49,11.69,18.08,21.7,31.87,28.49,2.79,1.37,8.9,4.5,11.54,5.28.67.19,1.29.33,1.99.23,1.29-1.24-10.12-17.74-11.66-19.75-7.02-9.12-14.73-14.06-22.97-21.56-4.62-4.2-8.86-8.91-13.45-13.14-.29-.27-.44-.56-.4-.96ZM776.26,416.45c-6.19-3.68-16.33-5.77-23.19-8.24-8.76-3.15-17.44-6.54-25.63-10.99-2.29-1.24-4.2-3.44-6.92-3.71,6.84,8.53,14.31,17.08,17.92,27.59,9.28,3.5,19.08,5.26,28.68,7.68,3.54.89,5.7,1.36,9.32,2.06,6.02,1.18,8.84,5.85.3,5.68-3.06-.06-10.53-1.4-13.87-2-2.89-.52-21.18-5.3-22.08-4.4.33,4.11-1.47,9.29-4.19,12.39-1.4,1.6-3.36,2.35-4.88,3.53-.55.43-1.02.5-.82,1.4.54.72,15.44,3.1,17.63,3.4,9.22,1.24,30.94,3.67,38.43-2,1.23-.93,2.12-1.47,2.34-3.1.55-4.09-1.03-15.76-2.91-19.41s-6.88-7.93-10.15-9.88ZM739.76,429.19c-14.98-3.75-28.17-10.55-38.78-21.82-2.37-2.52-4.5-5.92-6.91-8.43-.39-.41-2.23-2.51-2.72-1.97-.8,4.49-.11,9.49.56,14.03.82,5.49,2.3,12.78,5.28,17.48,4.87,7.69,21.76,18.31,31.01,17.46,7.37-.67,12.68-9.79,11.57-16.76Z"/>
  <path d="M759.12,197.56c.77.78,1.36,1.27,1.89,2.32,1.19,2.35,2.5,12.04,1.96,14.64-.28,1.36-2.95,7.4-3.85,8.52-6.18,7.79-22.46,5.28-31.43,5.67-15.86.7-32.66,1.84-48.46,3.49-33.74,3.51-62.7,12.45-93.74,25.49-8.04,3.38-23.18,12.02-30.97,13.06-10.12,1.35-25.27-8.92-31.86-16.04-6.09-6.58-8.77-11.5-4.55-20.38,2.33-4.89,6.1-2.26,10.72-2.64,1.81-.15,4.3-.81,6.08-1.34,12.19-3.59,24.04-8.91,36.11-12.87,14.43-4.74,29.34-8.45,43.76-13.14,3.41-1.11,2.99-3.6,3.35-7.04,1-9.58.7-18.18.01-27.71-.3-4.17,1.29-9.55-3.02-11.82-13.8-7.28-20.24-19.87-23.48-34.91-1.22-5.65-.89-12.78,5.99-13.85s20,6.89,28.18,7.39c4.07.25,2.7-1.3,4.19-2.24.61-.38,6.11.85,7.26,1.16,4.22,1.13,7.1,3.44,10.55,6.52-1.75-1.04-5.22-3.37-6.92-2.47.55-2.87-7.31-4.3-9.14-3.97-2.02.37-1.62,2.25-5.89,1.92-8.13-.62-21.32-8.4-28.14-7.24-3.29.56-5.63,4.5-5.77,7.58-.17,3.71,5.37,20.06,7.47,23.63,1.63,2.78,5.9,7.82,8.32,9.98,2.65,2.37,6.27,4.09,9.16,6.18,1.6-5.93-.39-13.22-.86-19.43-4.87-3.39-10.6-6.9-12.75-12.72.59-.58,9.08,4.64,10.39,5.19,2.02.84,11.93,3.97,13.37,2.99.94-3.66,3.4-4.31,6.75-2.83,2.16.96,5.13,4.48,7.08,2.56.57,3.3,7.03,4.52,7.46,8.14.46,3.89-.83,2.48-2.49,3.5s-.82,4.74-1.01,6.41c-.57,4.92-1.87,9.8-1.41,14.78l.76.73c4.08.42,8.21,1.9,12.18-.03.7-.34,4.32-3.49,4.74-4.17.93-1.52,3.85-13.6,4.02-15.77.33-4.1-.05-5.68-2.48-8.89-3.91-5.16-10.02-11.79-14.83-16.09,5.66,3.38,12.73,10.86,16.54,16.36,2.15,3.1,2.17,7.33,1.64,10.98-1.4,9.67-6.84,28.75-10.67,37.82-.54,1.27-4.58,8.05-4.05,8.56,13.06-1.01,25.89-3.81,38.89-5.38,10.63-1.28,21.36-1.82,31.99-3.13,4.77-3.38,4.6-5.98,11.5-5.36,2.2.2,11.46,3.98,13.54,5.26,1.16.71,6.74,4.28,7.3,4.82,1.11,1.09,3.96,4.47,4.62,5.77-5.59-5.62-11.12-9.34-18.64-12.28-3.37-1.32-5.25-3.08-9.31-2.96s-4.43,3.24-6.92,4.85c-3.35,2.17-20.99,2.38-26.22,2.97-4.35.5-8.73,1.64-13.12,1.98-.15,1.05-.05.8.63,1.1,2.5,1.12,6.14,1.82,8.91,2.97,4.67,1.93,8.52,4.23,12.5,7.3,8.88-.52,17.67-1.92,26.6-1.47.59-.14,1.39-3.2,3.3-3.77,3.62-1.08,17.36,6.51,18.22,10.55.17.79.29,2.34-.69,2.58-3.65.89-12.47-11.22-16.28-10.88-1.18.1-1.54,1-1.01,2.02.84,1.61,8.11,2.93,4.4,7.34-6.08.02-12.18.21-18.25.09-2.61-.05-7.63-2.07-8.65,1.46-1.85-2.04-4.57-1.6-7.18-1.5-15.02.55-34.3,3.49-49.21,6.19-29.73,5.4-54.33,14.02-81.86,25.99-3.99,1.74-8.17,3.11-12.11,4.97,3.29,6.76,1.49,12.66-.99,19.27,18.16-8.06,36.41-16.32,55.3-22.62,6.21-2.07,13.07-3.47,19.19-5.55.84-.29,1.58-1.35,1.95-1.37,6.87-.43,14.22-2.38,21.4-3.49,10.52-1.63,21.03-2.05,31.54-3.58l41.3-1.99c1.18-1.03-4.23-3.3-4.61-3.55-5.31-3.54-10.16-7.26-14.19-12.28l11.91,9.6c7.61,5.89,17.44,7.87,26.66,4.48,1.85-.68,4.65-3.11,5.49-4.9.65-1.39,2.6-6.67,2.8-8.08.47-3.24-1.35-12.55-2.84-15.46ZM638.41,138.68c-1.7-.17-1.67,2.27-2.68,3.01-1.48,1.08-6.85.26-8.81-.18-2.16-.48-6.49-2.85-8.09-2.82-1.71.03-1.26,3.05-1.19,4.19,1.05,17.15,3.17,34.16,1.97,51.46-.2,2.8-.91,5.9-1.48,8.66.42.37,9.22-2.48,10.76-2.84,1.38-.32,3.21.46,3.63-1.31,3.36-19.86,5.95-39.97,5.88-60.17ZM660.67,165.4c-1.85-.25-2.9,1.74-4.34,2.33-3.04,1.26-9.19.94-12.22-.4l-1.02.52c-.54,3.93-1.5,7.81-2.15,11.71-.42,2.57-.2,5.92-.67,8.24-.51,2.5-2.67,6.56-3.24,9.13-.15.7-.16,1.4-.11,2.11,1.44.36,2.26-1.03,3.3-1.31.7-.19,2.58,0,3.79-.25,2.15-.46,4.41-.68,5.77-2.64,1.94-2.79,5.43-10.74,6.67-14.12,1.78-4.85,2.96-10.3,4.21-15.33ZM704.21,203.99c1.52-1.57-5.94-5.14-6.98-5.63-13.98-6.62-23.52-4.99-38.23-2.72-6.51,1.01-12.59,2.63-18.85,4.15-.54.13-1.52-.42-2.75-.05-2.02.61-2.47,2.92-3.68,4.26-.96,1.06-4.4,4.45-5.46,4.93-.21.1-.81.13-.73-.24,1.31-.77,4.36-6.74,3.46-7.67-32.57,8.04-64.29,19.43-95.97,30.43,8.12,3.04,17.26,3.51,23.77,9.91l1.08.17c13.49-5.21,26.84-10.78,40.56-15.4,31.16-10.5,64-17.15,96.65-21.59,2.32-.32,4.8.08,7.12-.55ZM557.27,242.58c1.1-1.59-7.93-5.84-9.28-6.29-7.62-2.54-13.33-3.05-21.14-3.06-1.83,0-5.46-1.43-7.05.09-2.04,1.94-2.81,11.46-1.55,13.91,2.58,5.01,12.11,13.12,17,16.15,2.63,1.63,11.65,6.4,14.34,6.44,1.93.03,7.77-1.03,9.52-1.89,5.48-2.7,7.61-14.9,4.08-19.88-6.08,1.34-12.6,8.28-19.01,7.92-4.91-.27-11.75-5.98-16.05-8.27.18-4.87,1.88-1.74,2.26-1.66,1.95.43,5.95.28,8.27.56,1.72.21,4.52,1.35,5.93,1.27.69-.04,12.29-4.73,12.68-5.3Z"/>
  <path d="M600.32,617.66l9.66-9.39,1.23-1.99c-3.52-.53-7.28.63-10.65.51-4.33-.16-10.61-2.84-14.52-4.78-5.47-2.72-11.4-6.35-15.12-11.1-.75-.95-4.27-6.53-4.53-7.38s.17-4.17.41-5.09c.78-3,1.99-1.26,3.6-1.35,20.38-1.19,48.81-10.16,69.12-15.38.68-.18,2.11-.7,3.49-1.06,8.47-2.19,18.43-3.86,26.57-6.57,5.47-1.82,6.12-7.12,13.2-6.98,3.79.07,22.18,6.92,24.89,9.46,1.57,1.46,6.15,6.91,7.14,8.69.29.52,2.31,5.81,2.28,6.13-.12,1.22-1.53,1.55-1.88,2.6-.12.37-.93,3.25-.95,3.43-.11.83.57,1.66.27,2.78-.15.57-1.85,2.14-2.43,2.55-7.02,5.05-28.76,7.05-38.15,8.85-18.37,3.5-50.59,9.31-65.67,19.92-2.62,1.84-4.83,5.1-7.94,6.15ZM681.94,576.1c-.54.6,1.55,2.29,2.02,2.68,5.23,4.35,11.49,7.53,18.45,6.67,2.35-.29,11.06-3.5,11.15-6.09.03-.86-.64-1.5-.35-2.86.38-1.78,1.94-4.01,2.87-5.58-2.37-4.87-5.46-10.56-9.94-13.83-3.46-2.53-18.31-8.43-22.45-8.71-7.12-.49-8.58,4.93-14.72,7.09-9.24,3.24-21.86,5.53-31.19,7.89-13.96,3.53-28.02,6.78-41.92,10.52,5.67,1.75,11.13.88,16.07,4.71,1.17.91,3.76,4.33,4.85,4.33l21.53-6.18c4.73-2.08,11.37-2.5,16.12-4.65,1.56-.71,13.34-9.12,14.42-10.32,1-1.12.38-3.48,1.46-2.98,1.69.78.12,2.69-.48,3.47-2.73,3.51-8.07,4.72-10.64,8.4,3.36-.99,25.86-5.87,26.75-7.25s.47-3.51,3.17-3.67c1.6-.1,4.81,1.39,6.37,2.09,1.83.82,10.48,5.14,10.97,6.37.22.54-.14,2.69-.57,3.02-.56.43-3.27-.18-4.38-.06-6.77.72-13.06,3.15-19.55,4.95ZM692.82,563.23c.9-.78-3.93-3.83-4.93-1.73.89,2.42,2.79,1.7,4.93,1.73ZM675.51,573.13c-4.03.62-8.03,1.58-11.98,2.61s-20.58,5.25-22.39,7.3c-.51.57-.68,1.85-.79,1.93-.07.05-.88-.5-1.79-.11-2.64,1.12-8.65,7.82-11.3,10.03-4.89,4.1-10.48,7.46-14.58,12.38,5.49-1.14,10.31-4.07,15.57-5.94,14.39-5.11,29.48-7.9,44.67-10.74,7.1-1.33,14.26-2.44,21.39-3.6.25-1.16-.17-.79-.64-1.1-1.16-.76-2.85-1.13-4.08-1.85-3.64-2.13-6.77-5.07-10.35-6.98-4.59,1.38-9.91,2.42-14.39,3.97-4.86,1.68-9.28,4.39-14.09,6.2-3.3,1.25-8.06,1.31-10.19,4.24l-1.67-.53,36.6-17.8ZM583,590.45h7.17c1.22,0,20.99-5.82,23-6.68.57-.24,1.1-.46,1.48-.99-3.7-4.89-9.3-6.34-15.14-7.12-10.2-1.35-15.75,1.21-25.23,2.36-1.42.17-5.28-.35-5.9.53-1.45,3.65-.16,6.86,2.03,9.89,7.18,9.93,22.12,17.1,34.11,16.86,2.77-.05,5.67.39,8.3-.6s6.18-5.57,6.66-8.18c.51-2.78-.33-6.11-1.69-8.58-7.87,1.19-16.81,5.38-24.67,5.96-3.58.27-7.5-1.06-10.14-3.45ZM639.4,582.54l-19.77,4.96c.91,4.22,1.64,7.66-.01,11.86l19.78-16.82Z"/>
  <path d="M466.46,791.63c1.47,1.62,3.76,3.48,4.84,5.3,2.07,3.49,6,14.92,6.35,18.88.38,4.27-.73,8.91-4.31,11.57-3.31,2.46-5.56,3.34-9.57,2.31-9.9-2.54-22.25-22.64-27.29-31.59-1.39-2.47-6.43-13-5.12-15.18,1.83-3.05,14.89-.61,18.18.14,1.86.42,4.71,2.06,6.63,2.19,1.02.07,2.1-.55,3.38-.34,1.48.25,5.64,5.32,6.91,6.72ZM460.65,786.57c-1.9-1.3-3.05-.22-4.82-.39-3.43-.33-8.72-2.73-12.14-3.2s-8.11-.53-11.54.5c-.89,1.31,4.67,13.14,5.81,15.13,4.65,8.13,16.32,27.17,25.2,29.72,7.14,2.05,13.39-3.21,13.48-10.53.06-4.51-4.4-17.33-7.02-21.17-1.04-1.53-7.63-9.13-8.98-10.06Z"/>
  <path d="M469.67,817.03c-7.2,4.02-7.86-8.62-9.47-9.75-.34-.24-1.25-.08-1.81-.39-3.4-1.83-8.41-6.2-11.44-8.86-2.56-2.25-4.89-4.88-7.41-7.18,4.22.58,8.69,3.08,12.53,5.03.87.44,3.88,2.76,4.12,2.8,1.24.24,2.98-2.51,6.06.38,1.32,1.24,6.1,11.88,6.73,14.05.23.79,1.04,3.41.7,3.91Z"/>
</svg>