<?xml version="1.0" encoding="UTF-8"?>
<svg id="Layer_1" data-name="Layer 1" xmlns="http://www.w3.org/2000/svg" viewBox="0 0 1024 1024">
  <defs>
    <style>
      .cls-1 {
        fill: #f15f3e;
      }
    </style>
  </defs>
  <path class="cls-1" d="M379.06,752.41c3.21-.49,6.18-2,9.51-2.08,10.61-.23,28.94,15.53,28.59,26.59-.09,2.92-1.25,5.12-2.39,7.69-2.99,6.77-14.6,19.12-20.16,24.84-4.92,5.05-11.73,10.14-16.81,15.19l-2.73,28.76,34.45-3.04c8.51-.44,22.71,1.59,30.1-.91,1.82-.62,3.39-2.51,5.18-2.89,2.59-.55,10.56,2.88,13.32,4.28,7.23,3.66,14.88,10.64,17.64,18.36s.97,19.34-8.17,21.25c-37.32-3.43-75.48-5.1-112.57,1.41-22.67,3.98-51.42,17.85-72.84,6.91-5.17-2.64-21.24-13.17-16.19-19.95,3.94-5.3,7.6-2.84,12.33-3.65,7.45-1.29,17.07-5.2,24.74-7.28,5.24-1.42,16.11-2.64,20.29-4.71,4.44-2.19-.32-3.03-1-4.06-.63-.94-1.4-6.7-2.85-6.79l-17.43,10.05c2.57-4.74,8.78-7.92,12.01-11.48,4.55-5.01-5.28-14.53-8.04-18.99-3.34-5.39-9.71-14.06-12.18-18.82-1.51-2.91-4-13.59-3.17-16.5,3.44-12.06,46.74-30.35,58.92-35.16l2.49-30.57-1.49-2.23c-8.87,2.41-27.13,6.26-35.49,2.2-3.08-1.49-18.4-14.16-20.06-16.94-2.12-3.53-2.57-8.43-2.99-12.51,26.66-2.41,54.16-9.45,80.01-16.49,6.45-1.76,18.86-4.22,24.23-6.77,2.63-1.25,5.29-5.39,8.34-5.75.47-.06,8.73.35,9.43.48,8.71,1.52,7.82,10.3,18.47,2.52,7.43-5.43,25.88-22.06,30.56-29.44.77-1.22,1.29-1.98.95-3.53-30.8-3.09-63.83,3.84-93.65,11.83-13.98,3.75-44.84,16.87-56.89,17.19-9.04.24-17.81-8.63-26.1-11.89-11.07-4.35-7.28-1.14-8.36,7.34-1.6,12.55-8.33,52.17-14.54,61.46-5.18,7.76-12.02,3.23-17.46-1.44-7.58-6.5-11.53-14.07-14.46-23.54-1.4-4.51-2.38-7.68-.29-12.24,7.09-15.43,9.74-31.43,16.28-46.71.92-2.14,9.12-17.79,11.47-16.02l2.2,5.33,14.31,18.68c3.91-15.71,63.19-19.21,66.03-23.99,1.1-10.09.64-20.31-.72-30.31l-1.24-1.76c-12.9-4.32-25.09-24.28-22.53-37.42,1.51-7.72,17.52,1.27,22.57,1.45,2.11.08,3.43-1.42,4.92-1.46,7.88-.22,14.94,2.69,21.62,6.84,6.11,3.79,17.8,13.38,19.43,20.58,1.95,8.63-8.48,27.89-10.57,37.06,12.12-.85,24.32-3.44,36.45-4.04,14.18-.7,32.78,1.91,46.09.09,2.79-.38,5.13-2.42,8.25-2.84,2.8-.38,5.57.83,8.51-.04,10.15,10.6,18.89,18.79,26.39,31.59.54.92,1.86,1.21,2,1.52,1.08,2.35,1.88,12.54,1.28,15.02-.17.71-1.55.54-1.91,1.43-.42,1.05.16,2.8-.54,4.29-1.12,2.38-16.49,13.79-19.58,15.41-10.19,5.34-11.43,3.49-21.45,3.55-2.61.01-4.71,1.76-7.07,1.93-5.74.43-11.84.44-17.41-.92l1.71,13.38c-.51,4.61-9.55,7.05-13.5,8.33-12.93,4.2-27.36,5.78-40.14,10.86-2.69,1.29-6.07,11.69-6.07,13.93v15.5ZM349.06,794.41c-9.6,1.84-28.27,11.15-34.65,18.34-7.77,8.76,2.79,21.28,10.15,26.69,2.94-2.58,24.5-21.83,24.5-23.53v-21.5ZM340.85,843.67c-1.89-1.03-6.96,3.45-5.79,4.73,4.74.42,11.19,5.28,12-2.48-1.58-2.36-3.32-1.28-5.44-.47l-.76-1.78Z"/>
  <path class="cls-1" d="M575.06,868.41l26.82-34.68c9.82-13.56,44.2-62.91,45.13-76.96.08-1.24-.38-5.26-1.53-5.37l-35.15,10.78c-9.78,2.26-17.41-4.66-24.75-9.76-6.46,13.13-9.91,27.61-16.04,40.98-5.4,11.79-13.88,27.9-21.06,38.94-9.3,14.29-19.09,22.66-34.11,29.89-7.4,3.56-14.87,7.48-23.3,8.19-.92-.81,10.7-14.94,11.84-16.65,28.18-42.57,55.44-108.56,67.87-158.13,2.26-8.99,5.02-18.23,4.16-27.58l-.82-1.18c-9.18.66-30.45-17.42-23.57-26.48,33.23-6.3,65.48-17.58,98.51-24.48,10.03-2.1,33.94-3.77,41.25-6.75,2.09-.85,3.05-3.14,5.01-3.99,5.45-2.35,9.34.2,14.06,2.43,6.15,2.9,24.27,14.48,26.23,20.76,3.38,10.79-11.75,29.91-20.05,36.06-2.38,1.76-9.08,4.04-10.04,6.01-1.42,2.89,2.72,11.42-.43,14.52-4.3,4.23-31.08,4.54-38.02,8.48-1.18,1.63,7.89,8.49,9.07,11.41,1.89,4.71-.47,7.79-.06,12.57l53.4-10.09c9.39-8.89,29.84-2.59,37.02,6.17,5.4,6.6,5.78,18.47-4.03,20.83-24.9,5.99-56.67,1.38-81.84,11.13l-1.92-2.04c-4.42,1.84-10.49.63-13.63,4.51,0,.74,6.87,5.62,7.95,7.25,1.49,2.24,1.4,5.31,3.63,7.14,3.76,3.08,15.41,5.5,20.38,7.62,8.44,3.6,23.02,16.65,24.01,25.99,3.58,33.49-21.21,94.12-48.09,114.92-9.47,7.33-15.57,9.1-25.71,1.85-6.32-4.52-12.99-10.74-16.4-17.57-3.1-6.18-6.05-13.71-9.05-19.95-1.22-2.54-8.33-18.45-9.35-18.69-3.74.66-5.54,4.16-8.7,6.13-1.7,1.06-12.02,5.8-13.2,5.8h-15.5ZM691.06,630.41c-6.23,1.92-12.96,2.53-19.2,4.29-14.11,3.98-30.98,10.78-45.05,15.95-10.24,3.75-24.22,8.05-33.62,12.42-1.91.89-3.95,1.31-2.97,3.66l14.15,17.53c7.53-2.97,15.2-5.72,22.94-8.11,13-4.01,33.5-7.91,44.96-13.04,4.72-2.11,5.43-4.94,7.98-9.02,1.93-3.07,12.47-21.82,10.82-23.67ZM646.85,725.21c2.35-1.64.44-14.82-.44-17.64-.79-2.54-4.47-8.38-7.58-6.98-11.69,3.26-24.01,9.81-35.73,12.41-2.43.54-3.8.15-6.09-.12l-8.94,28.01,2.31,1.38c18.33-7.28,37.35-12.41,56.47-17.05ZM690.65,788.85c-1.45-1.28-14.36-10.17-15.27-10.31-1.3-.2-2.09,1.05-2.86,1.83-13.85,20.57-27.76,42.37-43.46,61.54-5.48,6.68-13.27,7.77-3,17.01,3.71,3.34,21.14,13.02,25.61,13.48,3.91.4,10.4-5.48,13.05-8.34,12.64-13.63,24.55-41.4,27.9-59.6,1.1-6,2.89-11.31-1.96-15.6Z"/>
  <path class="cls-1" d="M498.71,225.76c7.69,7.26,11.22,15.37,8.29,26.09-7.86,28.83-16.56,58.78-25.44,87.56-4.68,15.17-18.17,61.18-32.75,67.25-3.49,1.45-8.16.37-12.03,2.65-2.69-2.54-6.3-3.62-9.04-6.07-1.3-1.16-8.11-8.83-8.9-10.1-2.58-4.13-.76-8.16-3.43-11.77-10.56.5-21.28-.54-31.82.05-20.39,1.15-46.85,9.77-65.89,7.87-5.36-.54-10.37-2.86-15.6-3.87-.9,4.82-2.02,9.54-5.02,13.55-10.19.92-18.66-4.54-25.4-11.67-2.62-2.78-12.7-16.17-13.83-19.17-1.05-2.79-.44-5.21-1.22-7.78-3.37-11.08-11.72-21.9-15.09-35.91-4.6-19.12-4.59-39.95-8.74-58.26-1.24-5.46-5.03-11.15-5.66-15.34-.54-3.61-.5-21.64,1.95-23.43,5.61,3.25,12.11,4.53,17.68,7.8,6.5,3.82,14.91,16.33,20.35,5.74,4.23-8.24-.05-10.52,10.98-15.02,34.06-13.9,114.77-26.93,151.47-25.51,8.64.33,19.93,3.04,28.01,2.99,2.83-.02,6.02-2.2,8.54-1.57,3.84.97,28.57,20.11,32.61,23.92ZM457.77,222.69c-4.5-5.47-23.38-3.03-30.04-2.12-8.75,1.2-18.99,3.91-27.43,6.57-2.67.84-16.23,4.98-16.22,6.76,3.33,3.21,10.1,10.58,10.94,15.04,2,10.64-9.08,34.34,8.57,33.56,5.58-.25,4.72-4.2,12.03-2.15,9.3,2.61,28.26,18.9,19.52,29.35-.68.81-8.4,4.21-9.79,4.47-8.25,1.52-19.98-.37-28.8.2-3.6.23-6.66.82-10.92,1.06-5.46.31-14.87,6.65-20.55,7.96,2.46-3.52,17.74-11.01,18.08-14.51.36-3.72-4.5-5.39-6.47-7.58-16.39-18.27-8.61-33.92-10.56-55.44-.19-2.07-.4-5.57-2.72-6.32-5.61-1.82-25.88,9.34-33.32,7.88-.36,4.28,4.68,6.38,7,9.5,3.51,4.73,4.93,10.65,5.01,16.5,1.18,1.58,4.97-5.71,3.98-1.52-.84,3.51-3.74,8.35-4.71,12.3-1.73,7.03-2.03,15.69-3.53,22.47-1.9,8.62-5.67,26.24-12.22,31.78-14.87,12.57-28.03-23.49-21.01-33.01,1.2-1.63,3.36-2.15,4.51-3.49,2.2-2.57,8.63-31.51,8.87-36.18.32-6.34-2.34-8.65-3.95-14.32-11.51,4.12-20.36.47-31.21-3.27-4.24-1.46-12.15-7.88-14.34.23-1.62,6.02,5.81,8.55,8.44,12.68,5.96,9.37,7.14,49.76,9.44,63.56s6.41,25.82,9.21,38.8c.84,1.33,1.43.79,2.56.58,4.86-.91,12.97-4.82,18.74-6.32,26.29-6.82,56.56-11.26,83.59-13.41,2.62-.21,5.78-1.73,8.23-1.78,4.43-.08,20.15,7.23,21.43,6.47,9.66-21.89,15.65-46.11,20.47-69.56,2.94-14.26,7.78-35.51,8.5-49.55.12-2.27.21-5.35-1.3-7.18Z"/>
  <path class="cls-1" d="M666.72,249.75c2.11,1.79,11.81,13.59,12.57,15.92,3.13,9.54-1.52,27.42-4.29,37.17-1.59,5.58-11.12,27.86-9.67,31.32,20.6,19.81,40.44,47.12,66.37,60.1,14.7,7.36,46.06,12.58,55.85,22.15,1.68,1.64,2.47,4.41,3.45,5.35,1.06,1.02,2.72.17,3.1,1.28.49,1.45,3.02,14.33,3.05,15.87.05,2.59-.64,5.74-2.63,7.52-.46.41-10.61,2.83-11.97,2.97-22.78,2.33-49.29-3.12-70.37-11.6-25.56-18.77-41.26-48.23-62.61-71.37-6.06,7.46-10.25,16.27-16.09,23.89-15.07,19.66-44.11,44.57-68.99,49.01-15.49,2.77-43.47,3.39-52.42-11.91,38.09-.73,74.53-28.6,96.41-58.1,3.72-5.01,16.65-24.2,17.93-29.12.29-1.1.39-2.07-.32-3.06-11.54-11.12-21.05-27.34-35.82-34.45-12.38-5.95-30.24-8.38-32.15-25.9-1.4-12.81,6.42-9.26,15.13-8.08,29.94,4.05,45.67,19.77,67.29,38.7,2.53-.56,8.29-24.67,8.55-28.46.91-13.39-7.68-13.52-8.84-23.31-.5-4.23,2.28-15.27,7.29-15.24,1.07,0,18.3,8.62,19.17,9.36Z"/>
  <path class="cls-1" d="M650.06,192.4c17.53-2,35.11-5.3,52.64-7.85,5.66-.82,20.84-1.24,24.74-3.26,1.6-.83,2.63-3.15,4.32-3.67,7.38-2.25,29.69,8.51,33.08,15.52,4.52,9.35,3.34,22.37-7.76,25.8-10.3,3.18-29.06,1.56-40.56,2.44-32.83,2.51-66.6,6.91-97.99,17.01-17.71,5.7-34.2,14.87-51.48,21.52-11.07,4.26-15.87,7.44-27.5,2.53-10.29-4.34-28.48-17.73-23.49-30.51,2.01-5.13,6.32-2.11,11.04-2.94,12.07-2.14,30.58-10.83,43.17-14.84,16-5.1,32.53-9.37,48.31-14.69.17-4.14,1.29-8.39,1.52-12.48.27-4.68.62-30.31-1.3-32.29-1.02-1.06-5.7-2.39-7.68-3.81-9.12-6.51-14.62-14.71-17.34-25.66-2-8.03-5.11-19.77,7.3-18.38,7.3.82,19.11,7.34,25.58,7.57,4.78.17,3.62-4.08,12.1-1.16,7.99,2.75,26.29,17.25,27.32,25.66,1.8,14.78-10.56,39.59-16.02,53.52Z"/>
  <path class="cls-1" d="M612.07,603.4l1.99-3.99c-13.68,4.52-25.34.79-37.13-6.38-4.09-2.49-14.15-11.67-12.73-16.91,2-4.31,7.12-2.2,11.11-2.97,26.59-5.16,58.86-13.44,84.97-21.03,3.75-1.09,9.23-2.21,12.51-3.49s5.82-4.77,8.32-5.68c4.51-1.65,23.84,3.66,28.33,6.58,2.68,1.75,10.12,11.2,10.3,14.51.64,11.45-12.22,13.64-20.66,15.88-19.75,5.22-40.67,6.68-60.23,12.77-9.2,2.86-17.54,7.98-26.78,10.71Z"/>
  <path class="cls-1" d="M452.37,827.1c-4.97-4.06-17.01-22.71-20.5-29-4.68-8.45-9-15.79,4.57-14.56,3.82.35,17.48,2.95,20.57,4.42,6.54,3.11,15.45,21.87,15.95,29.1.89,12.93-10.56,18.24-20.6,10.04Z"/>
</svg>